<?xml version="1.0" standalone="no"?>
<!DOCTYPE svg PUBLIC "-//W3C//DTD SVG 20010904//EN"
 "http://www.w3.org/TR/2001/REC-SVG-20010904/DTD/svg10.dtd">
<svg version="1.0" xmlns="http://www.w3.org/2000/svg"
 width="1422.000000pt" height="840.000000pt" viewBox="0 0 1422.000000 840.000000"
 preserveAspectRatio="xMidYMid meet">

<g transform="translate(0.000000,840.000000) scale(0.100000,-0.100000)"
fill="#000000" stroke="none">
<path d="M810 7990 c-19 -19 -20 -33 -20 -510 l0 -490 48 -34 c68 -50 186
-111 267 -138 58 -19 91 -23 190 -23 l121 0 179 87 c218 106 253 116 371 99
135 -19 271 -79 422 -187 l22 -16 0 596 c0 583 0 596 -20 616 -20 20 -33 20
-790 20 -757 0 -770 0 -790 -20z m1560 -20 c20 -20 20 -33 20 -580 0 -308 -2
-560 -4 -560 -2 0 -28 16 -57 36 -72 48 -149 86 -234 115 -58 20 -90 24 -190
24 l-121 0 -179 -88 c-220 -107 -259 -116 -386 -95 -114 18 -220 61 -325 131
l-79 52 -3 472 c-2 462 -2 473 18 493 20 20 32 20 770 20 737 0 750 0 770 -20z"/>
<path d="M930 7610 c0 -5 11 -10 25 -10 24 0 25 -2 25 -70 0 -40 4 -70 10 -70
6 0 10 30 10 70 0 68 1 70 25 70 14 0 25 5 25 10 0 6 -27 10 -60 10 -33 0 -60
-4 -60 -10z"/>
<path d="M1280 7540 c0 -47 4 -80 10 -80 6 0 10 11 10 25 0 32 10 32 40 0 31
-33 38 -24 10 15 l-22 31 23 25 c31 33 12 31 -23 -3 l-28 -27 0 47 c0 26 -4
47 -10 47 -6 0 -10 -33 -10 -80z"/>
<path d="M1402 7538 l1 -83 7 65 c4 48 8 60 14 45 5 -11 17 -39 27 -62 10 -24
20 -43 22 -43 2 0 15 28 28 63 l24 62 6 -65 6 -65 1 83 c2 99 -11 105 -42 19
-11 -31 -23 -57 -26 -57 -3 0 -15 26 -26 57 -31 86 -44 80 -42 -19z"/>
<path d="M1056 7565 c-6 -18 5 -20 22 -3 8 8 15 8 27 -2 23 -19 18 -30 -14
-30 -33 0 -54 -20 -45 -43 8 -21 32 -29 54 -17 13 7 21 7 25 0 23 -36 26 49 3
93 -11 21 -64 23 -72 2z m64 -54 c0 -16 -30 -33 -46 -27 -13 5 -14 9 -4 21 13
16 50 21 50 6z"/>
<path d="M1177 7574 c-18 -18 -5 -45 29 -59 42 -17 37 -40 -7 -31 -30 6 -40
-8 -13 -18 25 -10 42 -7 58 9 20 21 11 41 -25 54 -16 5 -29 15 -29 21 0 18 29
23 47 9 14 -12 16 -12 11 1 -5 16 -59 26 -71 14z"/>
<path d="M1586 7565 c-20 -21 -21 -54 0 -83 18 -25 42 -28 70 -7 17 13 16 14
-18 8 -25 -4 -38 -2 -38 6 0 6 -1 14 -2 19 -2 4 16 9 39 12 42 5 42 6 30 30
-15 30 -58 38 -81 15z m48 -1 c25 -9 19 -34 -7 -34 -30 0 -40 10 -26 27 13 15
12 15 33 7z"/>
<path d="M1707 7574 c-18 -18 -5 -45 29 -59 42 -17 37 -40 -7 -31 -30 6 -40
-8 -13 -18 25 -10 42 -7 58 9 20 21 11 41 -25 54 -16 5 -29 15 -29 21 0 18 29
23 47 9 14 -12 16 -12 11 1 -5 16 -59 26 -71 14z"/>
<path d="M1815 7570 c-12 -19 4 -45 35 -57 43 -16 39 -37 -5 -30 -35 6 -48 -6
-19 -17 25 -10 42 -7 58 10 24 23 20 33 -19 50 -19 8 -35 19 -35 24 0 18 29
23 47 9 14 -12 16 -12 11 1 -5 18 -63 26 -73 10z"/>
<path d="M1935 7569 c-11 -16 3 -23 19 -10 17 14 36 7 36 -14 0 -8 -13 -15
-32 -17 -25 -2 -34 -8 -36 -24 -4 -31 23 -50 52 -36 17 7 27 7 35 -1 6 -6 14
-8 18 -4 4 4 1 13 -5 19 -7 7 -12 26 -12 43 0 17 -5 36 -12 43 -15 15 -55 16
-63 1z m53 -66 c-2 -10 -13 -19 -26 -21 -24 -4 -25 -2 -16 22 9 23 46 21 42
-1z"/>
<path d="M2050 7561 c-15 -29 -12 -67 6 -85 18 -19 20 -19 45 -6 16 9 19 7 19
-9 0 -22 -29 -36 -44 -21 -16 16 -30 12 -16 -5 18 -21 57 -19 70 4 5 11 10 46
10 79 l0 59 -40 1 c-30 1 -42 -3 -50 -17z m70 -35 c0 -28 -24 -51 -45 -42 -18
6 -20 57 -3 74 17 17 48 -4 48 -32z"/>
<path d="M2180 7565 c-18 -22 -15 -77 6 -92 23 -17 36 -16 60 1 18 13 17 14
-16 13 -25 -2 -35 2 -38 16 -3 14 4 17 38 17 38 0 41 2 34 23 -4 12 -12 25
-18 29 -19 13 -53 9 -66 -7z m59 -8 c6 -8 8 -17 4 -20 -12 -12 -53 -7 -53 6 0
28 30 37 49 14z"/>
<path d="M3000 6400 c0 -6 10 -14 23 -19 12 -5 31 -19 42 -31 20 -22 20 -40
25 -1460 l5 -1438 24 -26 24 -26 -24 -26 -24 -26 -5 -1438 c-5 -1420 -5 -1438
-25 -1460 -11 -12 -30 -26 -42 -31 -13 -5 -23 -13 -23 -19 0 -20 40 -9 72 19
l33 29 5 1440 5 1440 24 26 c15 16 41 29 63 32 49 8 49 20 0 28 -22 3 -48 16
-63 32 l-24 26 -5 1440 -5 1440 -33 29 c-32 28 -72 39 -72 19z"/>
<path d="M410 5990 c-20 -20 -20 -33 -20 -590 0 -557 0 -570 20 -590 20 -20
33 -20 1190 -20 1157 0 1170 0 1190 20 20 20 20 33 20 590 0 557 0 570 -20
590 -20 20 -33 20 -1190 20 -1157 0 -1170 0 -1190 -20z m2360 -20 c20 -20 20
-33 20 -570 0 -537 0 -550 -20 -570 -20 -20 -33 -20 -1170 -20 -1137 0 -1150
0 -1170 20 -20 20 -20 33 -20 570 0 537 0 550 20 570 20 20 33 20 1170 20
1137 0 1150 0 1170 -20z"/>
<path d="M1140 5477 c0 -9 -5 -17 -12 -17 -9 0 -9 -3 0 -12 7 -7 12 -31 12
-55 0 -42 20 -67 38 -48 4 4 1 10 -5 12 -15 5 -18 89 -4 95 4 2 0 12 -10 22
-17 17 -19 18 -19 3z"/>
<path d="M2291 5478 c0 -10 -5 -18 -9 -18 -12 0 2 -98 15 -111 6 -6 17 -8 23
-4 9 6 8 10 -4 17 -19 11 -22 68 -4 86 8 8 9 12 1 12 -6 0 -14 8 -16 18 -4 16
-5 16 -6 0z"/>
<path d="M1983 5465 c-8 -9 -9 -16 -3 -20 6 -3 10 -26 10 -51 0 -31 5 -46 15
-51 9 -3 19 -2 23 2 4 4 1 10 -5 12 -16 6 -18 93 -2 93 6 0 4 7 -5 15 -18 18
-18 18 -33 0z"/>
<path d="M890 5441 c-15 -29 -12 -67 6 -85 18 -19 20 -19 45 -6 16 9 19 7 19
-9 0 -22 -29 -36 -44 -21 -16 16 -30 12 -16 -5 18 -21 57 -19 70 4 5 11 10 46
10 79 l0 59 -40 1 c-30 1 -42 -3 -50 -17z m65 -41 c0 -29 -4 -36 -22 -38 -17
-3 -24 3 -29 22 -9 37 2 58 28 54 19 -2 23 -9 23 -38z"/>
<path d="M1022 5448 c-7 -7 -12 -29 -12 -50 0 -43 26 -64 66 -54 35 9 29 24
-8 22 -23 -1 -33 4 -36 17 -3 14 4 17 37 17 29 0 41 4 41 14 0 37 -61 61 -88
34z m56 -10 c19 -19 14 -28 -18 -28 -41 0 -40 33 1 39 3 1 10 -4 17 -11z"/>
<path d="M1267 5453 c-17 -17 -5 -45 23 -54 31 -11 40 -34 18 -42 -7 -2 -21 0
-31 5 -10 5 -21 7 -24 5 -10 -11 40 -28 63 -23 34 9 34 53 -1 62 -34 8 -50 30
-29 38 9 3 23 1 31 -5 7 -7 17 -9 20 -5 4 4 1 11 -7 16 -17 11 -54 13 -63 3z"/>
<path d="M1383 5452 c-21 -14 -26 -60 -9 -87 35 -53 107 -11 91 52 -7 31 -21
43 -50 43 -11 0 -25 -4 -32 -8z m61 -29 c12 -29 -5 -63 -30 -63 -24 0 -29 12
-25 55 3 35 43 41 55 8z"/>
<path d="M1490 5416 c0 -27 6 -51 16 -60 18 -18 23 -19 44 -6 9 6 17 5 22 -3
14 -23 20 4 13 60 -5 32 -10 51 -11 43 -1 -8 -5 -32 -9 -52 -5 -32 -10 -38
-30 -38 -23 0 -25 4 -25 50 0 28 -4 50 -10 50 -5 0 -10 -20 -10 -44z"/>
<path d="M1620 5398 c0 -32 4 -58 10 -58 6 0 10 23 10 50 0 38 4 50 15 50 8 0
15 4 15 9 0 5 -11 8 -25 7 -24 -1 -25 -4 -25 -58z"/>
<path d="M1700 5444 c-8 -8 -13 -28 -13 -44 0 -54 43 -78 78 -44 21 22 13 29
-15 12 -18 -11 -23 -10 -36 6 -24 33 5 88 33 64 8 -6 17 -8 20 -4 9 9 -16 26
-38 26 -9 0 -22 -7 -29 -16z"/>
<path d="M1810 5445 c-18 -22 -15 -77 6 -92 23 -17 49 -16 63 1 10 12 6 14
-21 13 -23 -2 -33 3 -36 16 -3 14 4 17 38 17 38 0 41 2 34 23 -4 12 -12 25
-18 29 -19 13 -53 9 -66 -7z m58 -7 c19 -19 14 -28 -18 -28 -41 0 -40 33 1 39
3 1 10 -4 17 -11z"/>
<path d="M2056 5444 c-20 -20 -20 -53 0 -82 18 -26 42 -28 70 -7 18 14 17 14
-15 8 -22 -4 -36 -2 -41 8 -13 20 -2 29 36 29 26 0 34 4 34 18 0 40 -54 57
-84 26z m48 0 c28 -11 18 -34 -14 -34 -32 0 -37 9 -18 28 14 14 12 14 32 6z"/>
<path d="M2179 5432 c20 -28 20 -28 -1 -60 -23 -36 -9 -44 16 -9 l16 22 16
-22 c25 -35 39 -27 16 9 -21 32 -21 32 -1 60 11 15 16 28 10 28 -5 0 -17 -10
-25 -22 l-16 -22 -16 22 c-8 12 -20 22 -25 22 -6 0 -1 -13 10 -28z"/>
<path d="M7620 5790 c-20 -20 -20 -33 -20 -2340 0 -2307 0 -2320 20 -2340 20
-20 33 -20 1085 -20 1052 0 1065 0 1085 20 20 20 20 33 20 2340 0 2307 0 2320
-20 2340 -20 20 -33 20 -1085 20 -1052 0 -1065 0 -1085 -20z m2150 -20 c20
-20 20 -33 20 -2320 0 -2287 0 -2300 -20 -2320 -20 -20 -33 -20 -1065 -20
-1032 0 -1045 0 -1065 20 -20 20 -20 33 -20 2320 0 2287 0 2300 20 2320 20 20
33 20 1065 20 1032 0 1045 0 1065 -20z"/>
<path d="M8200 5720 c0 -5 11 -10 25 -10 24 0 25 -2 25 -70 0 -56 3 -70 15
-70 12 0 15 14 15 70 0 68 1 70 25 70 14 0 25 5 25 10 0 6 -28 10 -65 10 -37
0 -65 -4 -65 -10z"/>
<path d="M8730 5706 c0 -19 -4 -22 -22 -19 -13 2 -28 0 -34 -4 -18 -13 -24
-57 -11 -83 10 -20 20 -25 50 -25 l37 -1 0 78 c0 45 -4 78 -10 78 -5 0 -10
-11 -10 -24z m0 -72 c0 -36 -22 -56 -42 -36 -15 15 -13 63 2 72 23 14 40 -1
40 -36z"/>
<path d="M8790 5651 c0 -47 4 -81 10 -81 6 0 10 13 10 28 0 25 5 29 43 38 35
7 43 13 45 35 4 32 -12 45 -65 54 l-43 7 0 -81z m78 50 c25 -16 9 -46 -26 -49
-30 -3 -32 -1 -32 27 0 26 4 31 23 31 12 0 28 -4 35 -9z"/>
<path d="M9180 5650 c0 -47 4 -80 10 -80 6 0 10 33 10 80 0 47 -4 80 -10 80
-6 0 -10 -33 -10 -80z"/>
<path d="M8340 5628 c0 -32 4 -58 10 -58 6 0 10 20 10 44 0 34 5 47 23 59 22
15 22 15 -10 15 l-33 -1 0 -59z"/>
<path d="M8422 5678 c-17 -17 -15 -74 4 -92 19 -20 44 -20 69 -2 17 12 15 14
-20 12 -30 -1 -40 3 -43 17 -3 14 4 17 37 17 42 0 48 8 31 41 -12 22 -59 26
-78 7z m56 -10 c19 -19 14 -28 -18 -28 -16 0 -30 4 -30 8 0 9 21 32 30 32 3 0
11 -5 18 -12z"/>
<path d="M8550 5675 c-15 -18 1 -20 18 -3 8 8 15 8 26 -2 20 -16 11 -30 -18
-30 -33 0 -50 -23 -36 -49 12 -23 27 -26 50 -11 9 5 19 5 27 -2 8 -6 15 -9 17
-7 9 9 -12 102 -25 110 -21 13 -45 11 -59 -6z m50 -65 c-10 -19 -50 -29 -50
-12 0 14 24 32 42 32 16 0 17 -3 8 -20z"/>
<path d="M8942 5678 c-6 -6 -12 -29 -12 -50 0 -28 5 -40 21 -48 50 -28 94 19
73 79 -11 29 -60 41 -82 19z m66 -51 c-2 -27 -7 -32 -28 -32 -21 0 -26 5 -28
34 -4 39 13 55 41 40 13 -8 17 -19 15 -42z"/>
<path d="M9060 5671 c-33 -62 13 -121 71 -91 22 12 27 78 7 98 -19 19 -66 15
-78 -7z m68 -40 c-3 -31 -6 -36 -28 -36 -20 0 -26 6 -28 30 -4 32 20 58 44 48
10 -4 14 -17 12 -42z"/>
<path d="M7910 4190 c-20 -20 -20 -33 -20 -590 0 -557 0 -570 20 -590 20 -20
33 -20 790 -20 757 0 770 0 790 20 20 20 20 33 20 590 0 557 0 570 -20 590
-20 20 -33 20 -790 20 -757 0 -770 0 -790 -20z m1560 -20 c20 -20 20 -33 20
-570 0 -537 0 -550 -20 -570 -20 -20 -33 -20 -770 -20 -737 0 -750 0 -770 20
-20 20 -20 33 -20 570 0 537 0 550 20 570 20 20 33 20 770 20 737 0 750 0 770
-20z"/>
<path d="M8057 3843 c-11 -10 -8 -153 3 -153 5 0 10 28 12 63 l3 62 24 -63
c13 -35 27 -60 32 -55 4 4 17 31 28 58 l20 50 0 -57 c1 -32 6 -58 11 -58 6 0
10 34 10 81 0 98 -14 101 -49 10 l-25 -62 -24 65 c-23 64 -31 74 -45 59z"/>
<path d="M8430 3826 c0 -19 -4 -22 -23 -19 -36 7 -60 -23 -53 -65 7 -44 9 -45
56 -48 l40 -2 0 79 c0 46 -4 79 -10 79 -5 0 -10 -11 -10 -24z m-5 -76 c0 -28
-4 -36 -22 -38 -24 -4 -38 25 -28 59 5 14 14 19 28 17 18 -2 22 -10 22 -38z"/>
<path d="M8600 3770 c0 -47 4 -80 10 -80 6 0 10 33 10 80 0 47 -4 80 -10 80
-6 0 -10 -33 -10 -80z"/>
<path d="M9110 3826 c0 -19 -4 -22 -23 -19 -45 9 -73 -49 -47 -97 8 -14 20
-19 50 -17 l40 1 0 78 c0 45 -4 78 -10 78 -5 0 -10 -11 -10 -24z m0 -69 c0
-32 -15 -50 -36 -45 -23 4 -31 52 -14 73 17 20 50 1 50 -28z"/>
<path d="M9160 3840 c0 -5 5 -10 10 -10 6 0 10 5 10 10 0 6 -4 10 -10 10 -5 0
-10 -4 -10 -10z"/>
<path d="M9325 3824 c-8 -20 -8 -86 1 -116 6 -19 34 -25 34 -8 0 6 -4 10 -10
10 -5 0 -10 20 -10 45 0 29 4 45 13 45 8 0 9 3 1 8 -6 4 -13 14 -16 21 -3 12
-6 10 -13 -5z"/>
<path d="M8240 3791 c-33 -62 13 -121 71 -91 22 12 27 78 7 98 -19 19 -66 15
-78 -7z m68 -45 c-2 -26 -7 -31 -28 -31 -20 0 -26 6 -28 30 -3 19 2 33 14 42
25 18 46 -2 42 -41z"/>
<path d="M8492 3798 c-7 -7 -12 -29 -12 -50 0 -43 26 -64 66 -54 35 9 29 24
-8 22 -23 -1 -33 4 -36 17 -3 14 4 17 37 17 42 0 48 8 31 41 -12 22 -59 26
-78 7z m56 -10 c19 -19 14 -28 -18 -28 -16 0 -30 4 -30 8 0 9 21 32 30 32 3 0
11 -5 18 -12z"/>
<path d="M8710 3728 c0 -45 4 -78 10 -78 6 0 10 11 10 25 0 22 3 25 25 19 35
-9 55 11 55 56 0 46 -14 59 -62 57 l-38 -1 0 -78z m80 26 c0 -23 -6 -37 -16
-41 -22 -8 -46 25 -38 51 15 48 54 40 54 -10z"/>
<path d="M8840 3749 c0 -33 4 -59 10 -59 6 0 10 20 10 45 0 31 5 47 15 51 23
9 18 22 -10 22 -24 0 -25 -3 -25 -59z"/>
<path d="M8922 3798 c-7 -7 -12 -29 -12 -50 0 -43 26 -64 66 -54 35 9 29 24
-8 22 -23 -1 -33 4 -36 17 -3 14 4 17 37 17 42 0 48 8 31 41 -12 22 -59 26
-78 7z m56 -10 c19 -19 14 -28 -18 -28 -16 0 -30 4 -30 8 0 9 21 32 30 32 3 0
11 -5 18 -12z"/>
<path d="M9160 3750 c0 -33 4 -60 10 -60 6 0 10 27 10 60 0 33 -4 60 -10 60
-6 0 -10 -27 -10 -60z"/>
<path d="M9222 3798 c-32 -41 -15 -108 28 -108 20 0 55 29 45 38 -3 3 -11 0
-17 -6 -17 -17 -45 -15 -52 4 -10 25 -7 42 10 59 13 12 19 13 30 4 8 -7 18 -9
21 -5 9 9 -16 26 -38 26 -9 0 -21 -6 -27 -12z"/>
<path d="M8660 3705 c0 -8 5 -15 10 -15 6 0 10 7 10 15 0 8 -4 15 -10 15 -5 0
-10 -7 -10 -15z"/>
<path d="M8101 3564 c-20 -26 -26 -54 -22 -103 3 -32 29 -81 42 -81 7 0 3 12
-7 28 -23 35 -24 111 0 147 24 36 14 43 -13 9z"/>
<path d="M8950 3510 c0 -47 4 -80 10 -80 6 0 10 33 10 80 0 47 -4 80 -10 80
-6 0 -10 -33 -10 -80z"/>
<path d="M9272 3583 c42 -82 45 -128 11 -179 -8 -13 -11 -24 -5 -24 20 0 44
54 45 99 1 45 -27 111 -46 111 -5 0 -7 -3 -5 -7z"/>
<path d="M8140 3570 c0 -5 11 -10 25 -10 24 0 25 -2 25 -65 0 -37 4 -65 10
-65 6 0 10 28 10 65 0 63 1 65 25 65 14 0 25 5 25 10 0 6 -27 10 -60 10 -33 0
-60 -4 -60 -10z"/>
<path d="M8820 3505 c0 -43 4 -75 10 -75 6 0 10 13 10 29 0 28 3 30 43 34 l42
4 -42 1 c-41 2 -43 4 -43 32 0 29 2 30 45 30 25 0 45 5 45 10 0 6 -25 10 -55
10 l-55 0 0 -75z"/>
<path d="M8265 3529 c-11 -18 -10 -78 2 -90 14 -14 61 -15 75 -1 7 7 0 10 -23
9 -24 -2 -34 3 -37 16 -3 14 4 17 37 17 42 0 48 8 31 41 -12 21 -74 27 -85 8z
m65 -14 c11 -13 8 -15 -19 -15 -30 0 -39 9 -24 23 11 11 30 8 43 -8z"/>
<path d="M8380 3483 c0 -29 5 -53 10 -53 6 0 10 14 10 31 0 37 16 69 34 69 17
0 26 -22 26 -66 0 -19 5 -34 10 -34 11 0 13 52 4 88 -6 19 -12 22 -50 20 l-44
-1 0 -54z"/>
<path d="M8507 3527 c-7 -19 4 -34 36 -46 15 -6 27 -18 27 -27 0 -13 -7 -16
-35 -11 -36 6 -41 -6 -7 -15 29 -8 62 9 62 32 0 13 -11 25 -36 35 -42 17 -37
40 8 31 18 -3 27 -2 23 4 -9 15 -72 12 -78 -3z"/>
<path d="M8619 3516 c-24 -52 16 -104 66 -86 22 8 34 44 25 80 -5 20 -13 26
-43 28 -31 3 -39 -1 -48 -22z m70 -8 c11 -30 -2 -63 -24 -63 -28 0 -41 29 -27
59 14 32 40 34 51 4z"/>
<path d="M8740 3483 c0 -29 5 -53 10 -53 6 0 10 17 10 39 0 29 6 42 23 54 22
15 22 15 -10 15 l-33 -1 0 -54z"/>
<path d="M8999 3516 c-24 -52 16 -104 65 -86 26 9 39 50 27 83 -9 22 -17 27
-46 27 -28 0 -38 -5 -46 -24z m72 -10 c13 -28 -3 -66 -27 -66 -23 0 -38 43
-25 69 15 28 39 27 52 -3z"/>
<path d="M9110 3533 c1 -28 30 -98 41 -98 7 0 18 20 24 45 l11 45 12 -47 c7
-27 18 -48 25 -48 14 0 44 97 33 107 -6 6 -10 -4 -24 -57 l-9 -35 -13 48 c-15
58 -36 61 -45 7 -4 -22 -10 -40 -15 -40 -5 0 -11 18 -15 40 -4 22 -11 40 -16
40 -5 0 -9 -3 -9 -7z"/>
<path d="M5900 4580 c0 -27 -2 -30 -20 -20 -15 8 -24 6 -40 -10 -22 -22 -26
-51 -10 -81 8 -14 20 -18 50 -17 l40 1 0 79 c0 45 -4 78 -10 78 -5 0 -10 -14
-10 -30z m-16 -36 c20 -8 21 -57 1 -74 -32 -26 -63 38 -33 68 14 14 12 14 32
6z"/>
<path d="M6070 4530 c0 -47 4 -80 10 -80 6 0 10 33 10 80 0 47 -4 80 -10 80
-6 0 -10 -33 -10 -80z"/>
<path d="M6253 4530 c0 -47 2 -66 4 -42 2 23 2 61 0 85 -2 23 -4 4 -4 -43z"/>
<path d="M6290 4600 c0 -5 5 -10 10 -10 6 0 10 5 10 10 0 6 -4 10 -10 10 -5 0
-10 -4 -10 -10z"/>
<path d="M6770 4505 c0 -98 1 -105 20 -105 11 0 20 5 20 10 0 6 -4 10 -10 10
-6 0 -10 35 -10 85 0 50 4 85 10 85 6 0 10 5 10 10 0 6 -9 10 -20 10 -19 0
-20 -7 -20 -105z"/>
<path d="M6903 4583 c5 -27 4 -28 -31 -28 l-37 0 0 -50 0 -50 43 -1 42 -1 0
78 c0 52 -4 79 -11 79 -7 0 -9 -11 -6 -27z m-5 -72 c4 -35 -11 -53 -35 -44
-13 5 -18 64 -6 77 17 16 38 -1 41 -33z"/>
<path d="M7080 4600 c0 -5 5 -10 10 -10 6 0 10 5 10 10 0 6 -4 10 -10 10 -5 0
-10 -4 -10 -10z"/>
<path d="M7200 4580 c0 -27 -2 -30 -20 -20 -15 8 -24 6 -40 -10 -22 -22 -26
-51 -10 -81 8 -14 20 -18 50 -17 l40 1 0 79 c0 45 -4 78 -10 78 -5 0 -10 -14
-10 -30z m-16 -36 c20 -8 21 -57 1 -74 -32 -26 -63 38 -33 68 14 14 12 14 32
6z"/>
<path d="M7240 4600 c0 -5 5 -10 10 -10 6 0 10 -35 10 -85 0 -50 -4 -85 -10
-85 -5 0 -10 -4 -10 -10 0 -5 9 -10 20 -10 19 0 20 7 20 105 0 98 -1 105 -20
105 -11 0 -20 -4 -20 -10z"/>
<path d="M6452 4570 c-7 -11 -8 -20 -3 -20 6 0 11 -21 13 -47 2 -39 7 -48 23
-50 11 -2 14 0 8 3 -8 3 -13 24 -13 49 0 25 5 45 13 48 10 4 10 6 0 6 -7 1
-13 8 -13 16 0 21 -13 19 -28 -5z"/>
<path d="M5560 4560 c-7 -4 -19 -6 -27 -3 -10 4 -13 -8 -13 -51 0 -31 5 -56
10 -56 6 0 10 20 10 45 0 33 5 47 16 52 21 8 34 -14 34 -59 0 -55 18 -47 22 9
2 36 7 49 21 51 14 3 17 -4 17 -47 0 -29 5 -51 11 -51 6 0 9 21 7 53 l-3 52
-36 1 c-20 1 -40 4 -46 7 -5 3 -15 2 -23 -3z"/>
<path d="M5730 4563 c-22 -9 -30 -24 -30 -58 0 -38 16 -55 50 -55 35 0 50 17
50 56 0 23 -7 38 -22 48 -24 17 -25 17 -48 9z m34 -19 c21 -8 22 -70 1 -78
-28 -10 -45 5 -45 39 0 18 6 36 13 38 6 3 13 6 14 6 1 1 8 -2 17 -5z"/>
<path d="M5974 4559 c-26 -9 -35 -50 -20 -81 13 -26 62 -37 80 -17 8 9 7 10
-8 5 -25 -9 -56 2 -56 20 0 10 12 14 40 14 42 0 51 13 28 42 -18 21 -39 27
-64 17z m46 -24 c11 -13 8 -15 -19 -15 -30 0 -39 9 -24 23 11 11 30 8 43 -8z"/>
<path d="M6358 4559 c-28 -16 -21 -39 17 -55 19 -8 35 -19 35 -24 0 -17 -31
-24 -51 -11 -12 7 -19 8 -19 1 0 -14 40 -28 61 -23 40 11 33 53 -11 70 -40 15
-40 37 0 30 17 -4 30 -2 30 3 0 6 -4 10 -9 10 -5 0 -15 2 -23 5 -7 2 -21 0
-30 -6z"/>
<path d="M6972 4554 c-26 -18 -30 -75 -8 -93 19 -16 68 -10 74 7 3 11 0 11
-16 1 -17 -10 -23 -10 -36 0 -26 22 -19 31 24 31 33 0 40 3 40 19 0 17 -33 51
-50 51 -3 0 -16 -7 -28 -16z m56 -21 c2 -9 -7 -13 -27 -13 -30 0 -39 9 -24 24
11 10 46 3 51 -11z"/>
<path d="M6290 4505 c0 -30 5 -55 10 -55 6 0 10 25 10 55 0 30 -4 55 -10 55
-5 0 -10 -25 -10 -55z"/>
<path d="M6575 4550 c-4 -6 15 -10 49 -10 31 0 56 5 56 10 0 6 -22 10 -49 10
-28 0 -53 -4 -56 -10z"/>
<path d="M7080 4505 c0 -30 5 -55 10 -55 6 0 10 25 10 55 0 30 -4 55 -10 55
-5 0 -10 -25 -10 -55z"/>
<path d="M6575 4490 c3 -5 28 -10 56 -10 27 0 49 5 49 10 0 6 -25 10 -56 10
-34 0 -53 -4 -49 -10z"/>
<path d="M6110 4410 c0 -6 27 -10 60 -10 33 0 60 4 60 10 0 6 -27 10 -60 10
-33 0 -60 -4 -60 -10z"/>
<path d="M10220 4040 c-20 -20 -20 -33 -20 -590 0 -557 0 -570 20 -590 20 -20
33 -20 790 -20 757 0 770 0 790 20 20 20 20 33 20 590 0 557 0 570 -20 590
-20 20 -33 20 -790 20 -757 0 -770 0 -790 -20z m1560 -20 c20 -20 20 -33 20
-570 0 -537 0 -550 -20 -570 -20 -20 -33 -20 -770 -20 -737 0 -750 0 -770 20
-20 20 -20 33 -20 570 0 537 0 550 20 570 20 20 33 20 770 20 737 0 750 0 770
-20z"/>
<path d="M10633 3692 c-51 -8 -69 -79 -32 -126 30 -38 109 -31 109 11 0 14 -2
14 -19 -1 -28 -26 -73 -17 -85 15 -20 59 27 110 75 80 24 -15 30 -14 23 3 -6
15 -37 23 -71 18z"/>
<path d="M11050 3621 l0 -78 38 2 c20 1 40 3 44 4 14 2 20 69 8 91 -9 17 -19
21 -41 18 -25 -4 -29 -1 -29 19 0 13 -4 23 -10 23 -6 0 -10 -33 -10 -79z m75
-1 c10 -33 -4 -62 -28 -58 -22 3 -34 35 -23 64 8 21 44 17 51 -6z"/>
<path d="M11170 3690 c0 -5 5 -10 10 -10 6 0 10 5 10 10 0 6 -4 10 -10 10 -5
0 -10 -4 -10 -10z"/>
<path d="M10752 3648 c-6 -6 -12 -29 -12 -50 0 -28 5 -40 21 -48 50 -28 94 19
73 79 -11 29 -60 41 -82 19z m66 -51 c-2 -27 -7 -32 -28 -32 -21 0 -26 5 -28
34 -4 39 13 55 41 40 13 -8 17 -19 15 -42z"/>
<path d="M10861 3616 c0 -23 4 -50 9 -61 7 -16 9 -11 9 22 1 41 24 79 42 68 5
-4 9 -28 9 -56 0 -27 5 -49 10 -49 6 0 10 15 10 34 0 47 9 66 31 66 16 0 19
-8 19 -50 0 -27 5 -50 10 -50 15 0 12 97 -2 107 -7 4 -43 8 -80 9 l-68 1 1
-41z"/>
<path d="M11170 3600 c0 -33 4 -60 10 -60 6 0 10 27 10 60 0 33 -4 60 -10 60
-6 0 -10 -27 -10 -60z"/>
<path d="M11220 3598 c0 -32 4 -58 10 -58 6 0 10 18 10 39 0 24 7 46 17 56 16
16 17 16 30 -1 7 -10 13 -35 13 -56 0 -21 5 -38 10 -38 13 0 13 61 0 94 -8 21
-15 25 -50 23 l-40 -1 0 -58z"/>
<path d="M11350 3641 c-34 -65 20 -127 75 -87 17 12 15 14 -20 12 -30 -1 -40
3 -43 17 -3 14 4 17 37 17 33 0 41 4 41 18 0 42 -70 60 -90 23z m54 3 c28 -11
18 -34 -14 -34 -32 0 -37 9 -18 28 14 14 12 14 32 6z"/>
<path d="M11130 3360 c0 -47 4 -80 10 -80 6 0 10 33 10 80 0 47 -4 80 -10 80
-6 0 -10 -33 -10 -80z"/>
<path d="M11184 3407 c-5 -9 -7 -40 -4 -69 4 -43 9 -53 25 -55 11 -2 14 0 8 3
-8 3 -13 24 -13 50 0 28 4 44 13 44 8 0 9 3 1 8 -6 4 -13 14 -16 22 -4 12 -6
12 -14 -3z"/>
<path d="M10700 3334 c0 -30 5 -54 10 -54 6 0 10 18 10 40 0 27 5 43 15 46 23
9 18 22 -10 22 -24 0 -25 -4 -25 -54z"/>
<path d="M10782 3378 c-7 -7 -12 -27 -12 -44 0 -37 30 -65 61 -57 33 9 31 21
-3 19 -23 -1 -33 4 -36 17 -3 14 4 17 37 17 42 0 48 8 31 41 -12 22 -59 26
-78 7z m52 -4 c26 -10 18 -24 -14 -24 -29 0 -38 9 -23 23 8 9 17 9 37 1z"/>
<path d="M10896 3374 c-8 -21 9 -42 37 -46 12 -2 23 -12 25 -22 4 -17 0 -18
-32 -13 -20 3 -34 2 -31 -2 8 -14 39 -19 64 -10 28 11 26 52 -4 57 -27 5 -46
22 -39 34 3 5 20 6 36 3 21 -5 28 -4 24 4 -11 18 -73 14 -80 -5z"/>
<path d="M11010 3340 c0 -52 21 -78 50 -60 7 4 19 6 27 3 10 -4 13 8 13 51 0
31 -4 56 -10 56 -5 0 -10 -17 -10 -38 0 -39 -14 -62 -37 -62 -9 0 -13 16 -13
50 0 28 -4 50 -10 50 -5 0 -10 -22 -10 -50z"/>
<path d="M11244 3375 c-7 -17 12 -45 31 -45 7 0 18 -7 25 -15 10 -12 9 -16 -5
-21 -10 -4 -26 -2 -36 5 -11 6 -19 7 -19 1 0 -15 35 -29 58 -24 44 12 35 56
-13 68 -14 4 -25 14 -25 22 0 13 7 15 30 10 19 -3 29 -2 25 4 -10 16 -65 12
-71 -5z"/>
<path d="M12230 4040 c-20 -20 -20 -33 -20 -590 0 -557 0 -570 20 -590 20 -20
33 -20 790 -20 757 0 770 0 790 20 20 20 20 33 20 590 0 557 0 570 -20 590
-20 20 -33 20 -790 20 -757 0 -770 0 -790 -20z m1560 -20 c20 -20 20 -33 20
-570 0 -537 0 -550 -20 -570 -20 -20 -33 -20 -770 -20 -737 0 -750 0 -770 20
-20 20 -20 33 -20 570 0 537 0 550 20 570 20 20 33 20 770 20 737 0 750 0 770
-20z"/>
<path d="M12410 3694 c0 -27 46 -154 56 -154 6 0 18 24 24 53 18 76 22 77 40
12 9 -32 21 -60 28 -63 10 -3 52 116 52 149 0 27 -18 -7 -35 -66 -19 -66 -20
-65 -45 33 -6 23 -14 42 -19 42 -4 0 -16 -30 -27 -67 l-18 -68 -20 68 c-11 37
-23 67 -28 67 -4 0 -8 -3 -8 -6z"/>
<path d="M12700 3690 c0 -5 5 -10 10 -10 6 0 10 5 10 10 0 6 -4 10 -10 10 -5
0 -10 -4 -10 -10z"/>
<path d="M13490 3620 c0 -47 4 -80 10 -80 6 0 10 33 10 80 0 47 -4 80 -10 80
-6 0 -10 -33 -10 -80z"/>
<path d="M12755 3674 c-8 -20 -8 -86 1 -116 6 -19 34 -25 34 -8 0 6 -4 10 -10
10 -5 0 -10 20 -10 45 0 29 4 45 13 45 8 0 9 3 1 8 -6 4 -13 14 -16 21 -3 12
-6 10 -13 -5z"/>
<path d="M13428 3670 c-10 -11 -13 -20 -8 -20 6 0 10 -18 10 -39 0 -22 3 -46
6 -55 7 -17 34 -22 34 -6 0 6 -4 10 -10 10 -5 0 -10 20 -10 45 0 29 4 45 13
45 8 0 9 3 1 8 -6 4 -13 13 -15 20 -3 9 -9 6 -21 -8z"/>
<path d="M12630 3598 c0 -32 4 -58 10 -58 6 0 10 20 10 45 0 31 5 47 15 51 24
9 17 22 -10 20 -24 -1 -25 -4 -25 -58z"/>
<path d="M12700 3600 c0 -33 4 -60 10 -60 6 0 10 27 10 60 0 33 -4 60 -10 60
-6 0 -10 -27 -10 -60z"/>
<path d="M12822 3648 c-7 -7 -12 -29 -12 -50 0 -43 26 -64 66 -54 35 9 29 24
-8 22 -23 -1 -33 4 -36 17 -3 14 4 17 38 17 38 0 41 2 34 23 -4 12 -12 25 -18
29 -17 12 -51 9 -64 -4z m56 -10 c19 -19 14 -28 -18 -28 -41 0 -40 33 1 39 3
1 10 -4 17 -11z"/>
<path d="M13000 3603 c0 -36 4 -63 10 -63 13 0 13 90 0 110 -7 11 -10 -3 -10
-47z"/>
<path d="M13025 3650 c-3 -5 1 -10 9 -10 9 0 16 5 16 10 0 6 -4 10 -9 10 -6 0
-13 -4 -16 -10z"/>
<path d="M13080 3644 c-8 -8 -13 -28 -13 -44 0 -16 5 -36 13 -44 16 -20 54
-21 70 -1 10 12 6 13 -24 8 -32 -5 -36 -3 -36 16 0 18 6 21 40 21 44 0 47 5
24 38 -18 26 -56 29 -74 6z m60 -14 c10 -18 8 -20 -20 -20 -42 0 -40 35 2 39
4 1 12 -8 18 -19z"/>
<path d="M13201 3651 c-16 -10 -6 -51 13 -51 7 0 21 -7 32 -15 16 -12 17 -16
5 -24 -9 -6 -22 -6 -32 0 -22 12 -29 11 -29 -1 0 -16 46 -23 69 -10 31 16 25
39 -15 56 -19 8 -33 20 -31 27 5 13 21 14 52 1 18 -7 18 -6 6 9 -14 18 -48 22
-70 8z"/>
<path d="M13300 3616 c0 -45 18 -76 45 -76 24 0 26 18 3 22 -20 3 -23 10 -26
51 -4 59 -22 62 -22 3z"/>
<path d="M13378 3613 c-5 -52 -1 -73 13 -73 5 0 9 27 9 60 0 71 -16 80 -22 13z"/>
<path d="M13547 3653 c-17 -17 -5 -45 23 -54 31 -11 40 -34 18 -42 -7 -2 -21
0 -31 5 -10 5 -21 7 -24 5 -10 -11 40 -28 63 -23 34 9 34 53 -1 62 -34 8 -50
30 -29 38 9 3 23 1 31 -5 7 -7 17 -9 20 -5 4 4 1 11 -7 16 -17 11 -54 13 -63
3z"/>
<path d="M13048 3419 c-21 -12 -24 -44 -5 -56 6 -4 26 -12 42 -18 20 -7 30
-17 30 -30 0 -26 -40 -32 -65 -10 -10 9 -21 12 -24 7 -3 -5 0 -14 7 -20 41
-33 107 -19 107 23 0 21 -8 29 -45 45 -25 11 -45 26 -45 33 0 21 36 27 60 10
27 -19 42 -6 16 13 -23 16 -54 18 -78 3z"/>
<path d="M13184 3416 c-11 -8 -15 -18 -10 -23 5 -4 11 -2 13 5 3 6 16 12 29
12 31 0 34 -39 4 -47 -26 -7 -26 -23 -1 -23 24 0 33 -13 25 -34 -8 -21 -33
-20 -57 2 -18 16 -19 16 -16 -3 4 -19 43 -35 67 -27 7 2 17 13 23 24 8 15 7
24 -6 38 -11 12 -13 20 -6 25 18 10 12 43 -8 55 -26 13 -33 13 -57 -4z"/>
<path d="M12780 3405 c0 -8 -6 -15 -12 -15 -10 0 -10 -2 -1 -8 6 -4 13 -27 15
-52 2 -36 7 -45 23 -47 11 -2 14 0 8 3 -8 3 -13 24 -13 49 0 25 5 45 13 48 10
4 10 6 0 6 -7 1 -13 8 -13 16 0 8 -4 15 -10 15 -5 0 -10 -7 -10 -15z"/>
<path d="M12839 3366 c-24 -52 16 -104 65 -86 26 9 39 50 27 83 -9 22 -17 27
-46 27 -28 0 -38 -5 -46 -24z m70 -8 c19 -50 -28 -92 -50 -45 -8 18 -8 30 0
46 15 27 39 27 50 -1z"/>
<path d="M410 3990 c-20 -20 -20 -33 -20 -590 0 -557 0 -570 20 -590 20 -20
33 -20 1190 -20 1157 0 1170 0 1190 20 20 20 20 33 20 590 0 557 0 570 -20
590 -20 20 -33 20 -1190 20 -1157 0 -1170 0 -1190 -20z m2360 -20 c20 -20 20
-33 20 -570 0 -537 0 -550 -20 -570 -20 -20 -33 -20 -1170 -20 -1137 0 -1150
0 -1170 20 -20 20 -20 33 -20 570 0 537 0 550 20 570 20 20 33 20 1170 20
1137 0 1150 0 1170 -20z"/>
<path d="M1970 3489 c0 -5 5 -7 10 -4 6 3 10 8 10 11 0 2 -4 4 -10 4 -5 0 -10
-5 -10 -11z"/>
<path d="M1111 3478 c0 -10 -5 -18 -9 -18 -10 0 0 -89 11 -108 9 -14 37 -16
37 -3 0 5 -7 11 -15 15 -22 8 -20 72 3 85 15 9 15 10 0 11 -9 0 -19 8 -21 18
-4 16 -5 16 -6 0z"/>
<path d="M1725 3473 c-11 -18 -5 -116 7 -129 4 -3 15 -3 25 1 17 8 17 8 1 12
-14 3 -18 15 -18 49 0 28 4 44 13 44 8 0 9 3 1 8 -6 4 -13 13 -15 20 -3 8 -7
7 -14 -5z"/>
<path d="M1903 3465 c-8 -9 -9 -16 -3 -20 6 -3 10 -26 10 -51 0 -31 5 -46 15
-51 9 -3 19 -2 23 2 4 4 1 10 -5 12 -16 6 -18 93 -2 93 6 0 4 7 -5 15 -18 18
-18 18 -33 0z"/>
<path d="M860 3440 c-15 -28 -12 -66 6 -84 18 -19 20 -19 45 -6 16 9 19 7 19
-9 0 -22 -29 -36 -44 -21 -16 16 -30 12 -16 -5 18 -21 57 -19 70 4 5 11 10 46
10 78 l0 59 -40 1 c-30 2 -42 -3 -50 -17z m66 -15 c4 -8 3 -27 0 -41 -5 -19
-12 -25 -29 -22 -22 3 -34 35 -23 64 7 19 45 18 52 -1z"/>
<path d="M990 3444 c-8 -8 -13 -28 -13 -44 0 -16 5 -36 13 -44 16 -20 54 -21
69 -2 10 12 6 14 -21 13 -23 -2 -33 3 -36 16 -3 14 4 17 38 17 38 0 41 2 34
23 -4 12 -12 25 -18 29 -19 13 -53 9 -66 -8z m58 -6 c19 -19 14 -28 -18 -28
-41 0 -40 33 1 39 3 1 10 -4 17 -11z"/>
<path d="M1240 3445 c-15 -18 1 -20 18 -3 8 8 15 8 26 -2 20 -16 11 -30 -18
-30 -33 0 -50 -23 -36 -49 12 -23 27 -26 50 -11 9 5 19 5 27 -2 8 -6 15 -9 17
-7 9 9 -12 102 -25 110 -21 13 -45 11 -59 -6z m50 -65 c-10 -19 -50 -29 -50
-12 0 14 24 32 42 32 16 0 17 -3 8 -20z"/>
<path d="M1350 3399 c0 -33 4 -59 10 -59 6 0 10 20 10 45 0 33 5 47 19 54 26
14 31 5 31 -51 0 -26 5 -48 10 -48 6 0 10 25 10 55 0 58 -4 62 -67 63 -21 1
-23 -4 -23 -59z"/>
<path d="M1470 3398 c0 -32 4 -58 10 -58 6 0 10 18 10 39 0 47 24 78 46 60 8
-7 14 -30 14 -55 0 -24 5 -44 10 -44 13 0 13 76 0 100 -8 14 -20 19 -50 17
l-40 -1 0 -58z"/>
<path d="M1606 3444 c-20 -20 -20 -53 0 -82 17 -25 56 -29 73 -8 16 20 17 72
1 91 -16 20 -54 19 -74 -1z m67 -23 c7 -27 -11 -61 -32 -61 -31 0 -42 48 -16
74 18 18 41 12 48 -13z"/>
<path d="M1790 3445 c-10 -12 -10 -15 3 -15 9 0 18 4 22 10 8 13 35 1 35 -15
0 -8 -14 -15 -32 -17 -27 -2 -34 -8 -36 -30 -4 -31 25 -46 56 -29 13 7 22 7
30 -1 7 -7 15 -8 19 -3 5 4 2 10 -4 12 -7 3 -13 21 -13 42 0 20 -5 42 -12 49
-17 17 -53 15 -68 -3z m58 -62 c-4 -22 -48 -31 -48 -10 0 19 10 27 32 27 13 0
18 -6 16 -17z"/>
<path d="M1970 3400 c0 -33 4 -60 10 -60 6 0 10 27 10 60 0 33 -4 60 -10 60
-6 0 -10 -27 -10 -60z"/>
<path d="M2020 3441 c-33 -62 13 -121 71 -91 22 12 27 78 7 98 -19 19 -66 15
-78 -7z m68 -40 c-3 -31 -6 -36 -28 -36 -20 0 -26 6 -28 30 -4 32 20 58 44 48
10 -4 14 -17 12 -42z"/>
<path d="M2140 3399 c0 -33 4 -59 10 -59 6 0 10 20 10 45 0 33 5 47 19 54 26
14 31 5 31 -51 0 -26 5 -48 10 -48 6 0 10 25 10 55 0 58 -4 62 -67 63 -21 1
-23 -4 -23 -59z"/>
<path d="M2271 3446 c-13 -16 -5 -46 13 -46 7 0 21 -7 32 -15 16 -12 17 -16 5
-24 -10 -6 -22 -6 -34 1 -24 13 -32 5 -12 -12 21 -17 68 -2 73 23 3 12 -7 22
-32 32 -20 9 -36 20 -36 25 0 16 30 24 43 11 17 -17 31 -13 17 4 -16 19 -54
19 -69 1z"/>
<path d="M5610 3990 c-20 -20 -20 -33 -20 -590 0 -557 0 -570 20 -590 20 -20
33 -20 790 -20 757 0 770 0 790 20 20 20 20 33 20 590 0 557 0 570 -20 590
-20 20 -33 20 -790 20 -757 0 -770 0 -790 -20z m1560 -20 c20 -20 20 -33 20
-570 0 -537 0 -550 -20 -570 -20 -20 -33 -20 -770 -20 -737 0 -750 0 -770 20
-20 20 -20 33 -20 570 0 537 0 550 20 570 20 20 33 20 770 20 737 0 750 0 770
-20z"/>
<path d="M5900 3493 c-52 -19 -69 -94 -30 -133 39 -39 120 -17 120 32 0 25 -3
28 -35 28 -19 0 -35 -4 -35 -10 0 -5 11 -10 25 -10 15 0 25 -6 25 -14 0 -26
-66 -36 -88 -14 -7 7 -12 28 -12 48 0 20 5 41 12 48 15 15 61 15 76 0 14 -14
24 -7 14 8 -9 14 -52 24 -72 17z"/>
<path d="M6650 3476 c0 -19 -4 -22 -23 -19 -45 9 -73 -49 -47 -97 8 -14 20
-19 50 -17 l40 1 0 78 c0 45 -4 78 -10 78 -5 0 -10 -11 -10 -24z m0 -69 c0
-32 -15 -50 -36 -45 -23 4 -31 52 -14 73 17 20 50 1 50 -28z"/>
<path d="M6820 3420 c0 -47 4 -80 10 -80 6 0 10 33 10 80 0 47 -4 80 -10 80
-6 0 -10 -33 -10 -80z"/>
<path d="M6150 3477 c0 -9 -5 -17 -12 -17 -9 0 -9 -3 0 -12 7 -7 12 -31 12
-55 0 -42 20 -67 38 -48 4 4 1 10 -5 12 -15 5 -18 89 -4 95 4 2 0 12 -10 22
-17 17 -19 18 -19 3z"/>
<path d="M6032 3448 c-7 -7 -12 -29 -12 -50 0 -43 26 -64 66 -54 35 9 29 24
-8 22 -23 -1 -33 4 -36 17 -3 14 4 17 37 17 29 0 41 4 41 14 0 37 -61 61 -88
34z m56 -10 c19 -19 14 -28 -18 -28 -16 0 -30 4 -30 8 0 9 21 32 30 32 3 0 11
-5 18 -12z"/>
<path d="M6270 3398 c0 -32 4 -58 10 -58 6 0 10 20 10 44 0 87 48 77 51 -11 1
-37 2 -36 10 11 7 47 24 70 41 60 4 -3 8 -27 8 -55 0 -27 5 -49 10 -49 6 0 10
24 10 54 0 46 -3 56 -20 61 -12 4 -27 2 -35 -5 -9 -7 -15 -8 -20 -1 -3 6 -21
10 -40 9 l-35 -1 0 -59z"/>
<path d="M6462 3448 c-6 -6 -12 -29 -12 -50 0 -28 5 -40 21 -48 50 -28 94 19
73 79 -11 29 -60 41 -82 19z m66 -51 c-2 -27 -7 -32 -28 -32 -20 0 -26 6 -28
28 -5 38 14 60 40 46 14 -8 18 -19 16 -42z"/>
<path d="M6710 3444 c-8 -8 -13 -28 -13 -44 0 -16 5 -36 13 -44 16 -20 54 -21
70 -1 10 12 6 13 -24 8 -32 -5 -36 -3 -36 16 0 18 6 21 40 21 44 0 47 5 24 38
-18 26 -56 29 -74 6z m60 -14 c10 -18 8 -20 -20 -20 -42 0 -40 35 2 39 4 1 12
-8 18 -19z"/>
<path d="M6883 3454 c-26 -11 -13 -44 23 -59 30 -13 34 -17 24 -30 -9 -11 -17
-12 -32 -4 -23 12 -39 2 -18 -11 22 -14 47 -12 64 5 20 21 11 41 -25 54 -16 5
-29 14 -29 20 0 17 19 22 41 10 17 -9 20 -8 17 3 -5 14 -44 21 -65 12z"/>
<path d="M4857 3973 c-4 -3 -7 -55 -7 -115 0 -95 -2 -110 -20 -128 -20 -20
-33 -20 -710 -20 -677 0 -690 0 -710 -20 -19 -19 -20 -33 -20 -290 0 -257 1
-271 20 -290 20 -20 33 -20 708 -20 578 0 691 -2 708 -14 16 -12 20 -30 24
-133 5 -109 7 -118 25 -121 16 -2 78 60 260 263 132 147 244 277 249 291 6 15
6 33 0 48 -14 37 -485 556 -504 556 -9 0 -20 -3 -23 -7z m264 -283 c193 -215
234 -266 234 -290 0 -24 -41 -75 -234 -290 -128 -143 -237 -260 -242 -260 -5
0 -9 50 -9 110 0 97 -2 112 -20 130 -20 20 -33 20 -710 20 -677 0 -690 0 -710
20 -19 19 -20 33 -20 270 0 237 1 251 20 270 20 20 33 20 710 20 677 0 690 0
710 20 18 18 20 33 20 130 0 61 4 110 9 110 5 0 114 -117 242 -260z"/>
<path d="M4680 3440 c0 -47 4 -80 10 -80 6 0 10 9 10 19 0 31 18 34 36 6 9
-14 23 -25 31 -25 10 0 7 9 -11 33 l-25 33 21 22 c12 12 18 25 14 29 -4 5 -18
-4 -31 -19 -13 -16 -27 -28 -30 -28 -3 0 -5 20 -5 45 0 25 -4 45 -10 45 -6 0
-10 -33 -10 -80z"/>
<path d="M3616 3491 c-10 -11 -18 -36 -18 -56 0 -47 25 -75 69 -75 50 0 73 16
73 50 0 26 -3 30 -29 30 -17 0 -33 -4 -36 -10 -4 -6 5 -10 20 -10 32 0 31 -29
-1 -41 -38 -14 -69 11 -72 59 -3 37 0 43 23 54 21 9 31 9 46 0 27 -17 44 -16
29 3 -18 22 -83 19 -104 -4z"/>
<path d="M4020 3435 c0 -43 4 -75 10 -75 6 0 10 14 10 30 0 27 3 30 33 30 39
0 52 8 61 36 10 33 -17 54 -70 54 l-44 0 0 -75z m84 52 c27 -20 10 -47 -30
-47 -31 0 -34 3 -34 30 0 25 4 30 23 30 13 0 31 -6 41 -13z"/>
<path d="M4170 3435 c0 -43 4 -75 10 -75 6 0 10 16 10 35 0 34 1 35 40 35 39
0 40 -1 40 -35 0 -19 5 -35 10 -35 6 0 10 32 10 75 0 43 -4 75 -10 75 -5 0
-10 -13 -10 -30 0 -28 -2 -30 -40 -30 -38 0 -40 2 -40 30 0 17 -4 30 -10 30
-6 0 -10 -32 -10 -75z"/>
<path d="M4330 3435 c0 -43 4 -75 10 -75 6 0 10 32 10 75 0 43 -4 75 -10 75
-6 0 -10 -32 -10 -75z"/>
<path d="M4463 3503 c26 -4 27 -6 27 -74 0 -39 4 -69 10 -69 6 0 10 30 10 69
0 68 1 70 28 74 15 2 -2 4 -38 4 -36 0 -53 -2 -37 -4z"/>
<path d="M3891 3484 c-9 -11 -10 -18 -3 -23 6 -3 12 -26 14 -51 2 -33 8 -46
21 -48 9 -2 17 2 17 8 0 6 -5 8 -11 4 -8 -4 -10 10 -9 47 4 86 0 95 -29 63z"/>
<path d="M3788 3469 c-21 -12 -25 -78 -6 -97 15 -15 64 -16 73 -1 10 16 -3 23
-18 10 -17 -14 -47 -4 -47 15 0 10 12 14 40 14 44 0 50 11 24 48 -16 24 -39
27 -66 11z m60 -26 c2 -9 -7 -13 -27 -13 -30 0 -39 9 -24 24 11 10 46 3 51
-11z"/>
<path d="M4570 3464 c-8 -8 -13 -28 -13 -44 0 -37 19 -60 49 -60 48 0 69 53
38 98 -18 26 -56 29 -74 6z m64 -20 c10 -25 7 -42 -9 -58 -30 -30 -66 15 -44
56 12 22 45 24 53 2z"/>
<path d="M4806 3464 c-18 -18 -21 -56 -6 -85 13 -23 62 -26 80 -4 14 17 0 21
-17 4 -8 -8 -17 -8 -32 0 -33 18 -25 31 19 31 33 0 40 3 40 19 0 25 -26 51
-50 51 -10 0 -26 -7 -34 -16z m62 -21 c2 -9 -7 -13 -27 -13 -30 0 -39 9 -24
24 11 10 46 3 51 -11z"/>
<path d="M4920 3418 c0 -70 18 -78 22 -10 3 40 6 47 26 50 20 3 22 0 22 -47 0
-28 5 -51 10 -51 14 0 12 97 -2 106 -6 4 -27 8 -45 9 l-33 1 0 -58z"/>
<path d="M5053 3473 c-27 -10 -14 -44 23 -59 19 -8 33 -20 31 -27 -4 -13 -31
-14 -62 -1 -18 7 -18 6 -6 -9 27 -33 100 -12 86 25 -3 7 -19 19 -35 25 -40 15
-40 37 0 30 31 -7 42 6 14 17 -18 7 -33 7 -51 -1z"/>
<path d="M410 1990 c-20 -20 -20 -33 -20 -590 0 -557 0 -570 20 -590 20 -20
33 -20 1190 -20 1157 0 1170 0 1190 20 20 20 20 33 20 590 0 557 0 570 -20
590 -20 20 -33 20 -1190 20 -1157 0 -1170 0 -1190 -20z m2360 -20 c20 -20 20
-33 20 -570 0 -537 0 -550 -20 -570 -20 -20 -33 -20 -1170 -20 -1137 0 -1150
0 -1170 20 -20 20 -20 33 -20 570 0 537 0 550 20 570 20 20 33 20 1170 20
1137 0 1150 0 1170 -20z"/>
<path d="M1325 1474 c-8 -20 -8 -86 1 -116 6 -19 34 -25 34 -8 0 6 -4 10 -10
10 -5 0 -10 20 -10 45 0 29 4 45 13 45 8 0 9 3 1 8 -6 4 -13 14 -16 21 -3 12
-6 10 -13 -5z"/>
<path d="M1795 1480 c-9 -14 -8 -92 1 -122 6 -19 34 -25 34 -8 0 6 -4 10 -10
10 -5 0 -10 20 -10 45 0 29 4 45 13 45 8 0 9 3 1 8 -6 4 -13 14 -16 22 -4 12
-6 12 -13 0z"/>
<path d="M1081 1447 c-6 -6 -11 -28 -11 -49 0 -44 27 -66 60 -48 23 13 26 2 6
-26 -13 -17 -18 -17 -36 -6 -19 11 -21 11 -18 0 3 -7 19 -13 38 -13 39 0 47
17 49 100 l1 51 -39 1 c-21 1 -43 -3 -50 -10z m63 -29 c7 -28 -11 -60 -32 -56
-21 4 -30 67 -11 79 18 11 36 1 43 -23z"/>
<path d="M1200 1441 c-34 -65 21 -128 76 -86 18 14 17 14 -15 8 -23 -4 -36 -2
-42 8 -15 24 -10 29 31 29 32 0 40 4 40 18 0 42 -70 60 -90 23z m54 3 c28 -11
18 -34 -14 -34 -32 0 -37 9 -18 28 14 14 12 14 32 6z"/>
<path d="M1430 1456 c0 -20 45 -116 54 -113 6 2 20 29 33 61 12 33 17 56 11
54 -7 -3 -18 -23 -26 -47 -16 -47 -24 -45 -42 12 -6 20 -16 37 -21 37 -5 0 -9
-2 -9 -4z"/>
<path d="M1560 1441 c-34 -65 20 -127 75 -87 17 12 15 14 -20 12 -30 -1 -40 3
-43 17 -3 14 4 17 37 17 42 0 48 8 31 41 -7 12 -21 19 -40 19 -19 0 -33 -7
-40 -19z m58 -3 c19 -19 14 -28 -18 -28 -16 0 -30 4 -30 8 0 9 21 32 30 32 3
0 11 -5 18 -12z"/>
<path d="M1686 1438 c-21 -29 -20 -51 2 -78 14 -18 25 -22 45 -16 16 4 27 13
27 23 0 13 -3 14 -12 5 -17 -17 -45 -15 -52 4 -10 25 -7 42 10 59 13 12 19 13
30 4 8 -7 18 -9 21 -5 9 9 -16 26 -39 26 -9 0 -24 -10 -32 -22z"/>
<path d="M1860 1445 c-16 -19 -16 -71 1 -91 19 -23 61 -13 78 18 23 40 5 82
-35 86 -19 2 -36 -3 -44 -13z m65 -26 c9 -29 -4 -59 -26 -59 -33 0 -45 62 -16
82 15 9 35 -1 42 -23z"/>
<path d="M1970 1400 c0 -71 16 -80 22 -12 5 51 1 72 -13 72 -5 0 -9 -27 -9
-60z"/>
<path d="M2005 1450 c-3 -5 1 -10 9 -10 9 0 16 5 16 10 0 6 -4 10 -9 10 -6 0
-13 -4 -16 -10z"/>
<path d="M2057 1453 c-17 -17 -5 -45 23 -54 31 -11 40 -34 18 -42 -7 -2 -21 0
-31 5 -10 5 -21 7 -24 4 -3 -3 7 -11 21 -18 33 -14 59 -2 64 30 2 16 -3 23
-22 28 -35 9 -54 32 -31 40 9 4 21 2 28 -5 17 -17 31 -13 17 4 -13 15 -51 20
-63 8z"/>
</g>
</svg>
