<?xml version="1.0" standalone="no"?>
<!DOCTYPE svg PUBLIC "-//W3C//DTD SVG 20010904//EN"
 "http://www.w3.org/TR/2001/REC-SVG-20010904/DTD/svg10.dtd">
<svg version="1.0" xmlns="http://www.w3.org/2000/svg"
 width="1177.000000pt" height="1220.000000pt" viewBox="0 0 1177.000000 1220.000000"
 preserveAspectRatio="xMidYMid meet">

<g transform="translate(0.000000,1220.000000) scale(0.100000,-0.100000)"
fill="#000000" stroke="none">
<path d="M790 11790 c-20 -20 -20 -33 -20 -790 0 -757 0 -770 20 -790 20 -20
33 -20 2193 -20 2093 0 2175 1 2190 18 16 17 17 86 17 794 0 738 -1 776 -18
791 -17 16 -184 17 -2190 17 -2159 0 -2172 0 -2192 -20z m4358 -16 l22 -15 0
-759 0 -759 -22 -15 c-20 -14 -242 -16 -2168 -16 -1838 0 -2149 2 -2166 14
-19 14 -19 34 -19 776 0 742 0 762 19 776 17 12 328 14 2166 14 1926 0 2148
-2 2168 -16z"/>
<path d="M2180 11111 c-75 -20 -53 -151 25 -151 27 0 67 28 59 41 -4 6 -13 4
-24 -6 -26 -23 -61 -15 -80 18 -13 24 -13 30 0 55 17 29 55 41 73 23 6 -6 18
-11 26 -11 13 0 13 2 1 14 -20 19 -50 25 -80 17z"/>
<path d="M2290 11046 c0 -41 5 -78 10 -81 6 -4 10 23 10 74 0 47 -4 81 -10 81
-6 0 -10 -31 -10 -74z"/>
<path d="M2800 11040 c0 -47 4 -80 10 -80 6 0 10 33 10 80 0 47 -4 80 -10 80
-6 0 -10 -33 -10 -80z"/>
<path d="M2930 11100 c-27 -27 -12 -57 34 -66 34 -6 52 -26 40 -45 -8 -13 -58
-11 -72 3 -13 13 -27 5 -18 -11 9 -13 62 -24 85 -16 45 14 36 70 -12 81 -41 8
-57 22 -50 40 6 16 63 20 63 4 0 -5 8 -10 18 -10 14 1 13 4 -7 20 -30 25 -56
25 -81 0z"/>
<path d="M2340 11026 c0 -30 5 -58 10 -61 6 -4 10 17 10 54 0 34 -4 61 -10 61
-5 0 -10 -24 -10 -54z"/>
<path d="M2390 11023 c0 -28 5 -55 10 -58 6 -4 10 10 10 34 0 47 24 78 46 60
8 -7 14 -30 14 -56 0 -27 4 -42 10 -38 13 8 13 71 0 95 -8 14 -20 19 -50 17
l-40 -1 0 -53z"/>
<path d="M2520 11019 c0 -37 4 -58 10 -54 6 3 10 31 10 61 0 30 -4 54 -10 54
-6 0 -10 -27 -10 -61z"/>
<path d="M2575 11060 c-13 -14 -16 -28 -11 -54 8 -39 33 -53 66 -36 21 11 27
30 10 30 -5 0 -10 -5 -10 -11 0 -6 -10 -9 -22 -7 -17 2 -24 11 -26 34 -4 36
21 65 40 46 17 -17 33 -15 18 3 -17 21 -43 19 -65 -5z"/>
<path d="M2685 11069 c-11 -17 3 -23 20 -9 12 10 18 10 30 0 19 -16 10 -30
-19 -30 -24 0 -46 -17 -46 -37 0 -20 37 -35 59 -23 13 7 22 7 26 0 23 -36 26
49 3 93 -10 19 -63 24 -73 6z m55 -69 c-10 -19 -50 -29 -50 -12 0 14 24 32 42
32 16 0 17 -3 8 -20z"/>
<path d="M3060 11031 c0 -58 20 -82 51 -63 11 7 19 8 19 2 0 -5 5 -10 10 -10
6 0 10 27 10 60 0 71 -18 81 -22 13 -3 -41 -6 -48 -25 -51 -21 -3 -23 0 -23
47 0 28 -4 51 -10 51 -5 0 -10 -22 -10 -49z"/>
<path d="M3180 11018 c0 -32 4 -58 10 -58 6 0 10 19 10 43 0 46 14 69 36 60 9
-3 14 -22 14 -54 0 -27 5 -49 10 -49 12 0 13 89 2 107 -4 7 -25 12 -45 11
l-37 -1 0 -59z"/>
<path d="M3274 11068 c-5 -7 -2 -9 8 -5 24 9 38 -13 38 -61 0 -26 4 -41 10
-37 13 8 13 56 0 89 -10 27 -43 35 -56 14z"/>
<path d="M3369 11016 l4 -61 8 49 c12 79 49 87 49 11 0 -24 5 -47 10 -50 6 -4
10 10 10 34 0 40 23 77 41 66 5 -4 9 -28 9 -56 0 -27 5 -49 10 -49 15 0 12 96
-2 108 -7 5 -42 9 -78 9 l-65 -1 4 -60z"/>
<path d="M3560 11065 c-14 -17 0 -21 16 -5 13 13 44 2 44 -15 0 -8 -14 -15
-32 -17 -27 -2 -34 -8 -36 -29 -4 -32 20 -44 51 -28 16 9 22 9 25 0 5 -14 32
-15 32 -1 0 6 -4 10 -10 10 -5 0 -10 17 -10 38 0 21 -5 43 -12 50 -17 17 -53
15 -68 -3z m58 -62 c-4 -22 -48 -31 -48 -10 0 19 10 27 32 27 13 0 18 -6 16
-17z"/>
<path d="M3670 11025 c0 -30 5 -57 10 -60 6 -4 10 9 10 32 0 21 4 43 8 49 7
11 42 27 42 19 0 -2 9 -27 20 -54 l20 -51 -22 -20 c-17 -16 -18 -20 -6 -20 22
0 32 15 62 89 30 73 29 71 17 71 -5 0 -15 -17 -22 -37 -18 -58 -21 -59 -38
-12 -16 42 -18 44 -59 45 l-42 2 0 -53z"/>
<path d="M8795 11781 c-542 -203 -1974 -755 -1985 -766 -13 -13 -13 -17 0 -30
16 -15 1990 -771 2041 -782 l29 -5 0 -109 0 -109 -26 0 c-20 0 -25 -4 -20 -16
3 -8 16 -49 28 -91 l22 -76 28 84 c33 99 33 99 8 99 -19 0 -20 7 -20 109 l0
109 27 7 c37 9 1959 742 2009 766 35 17 63 19 216 19 147 0 179 -3 192 -16 15
-14 16 -433 16 -4462 0 -2785 -4 -4453 -10 -4462 -8 -13 -163 -16 -1266 -20
l-1256 -5 -19 -24 c-16 -19 -19 -39 -19 -112 0 -87 0 -89 -24 -89 l-24 0 26
-80 c14 -44 29 -80 32 -80 3 0 18 36 32 80 l26 80 -24 0 c-24 0 -24 2 -24 88
0 48 5 94 10 102 8 13 163 16 1264 20 1188 5 1256 6 1273 23 17 17 18 210 18
4478 l0 4461 -24 19 c-21 17 -41 19 -199 19 -153 0 -181 2 -216 19 -23 11
-480 187 -1016 392 -707 270 -989 373 -1025 375 -32 2 -68 -3 -100 -15z m1133
-393 c551 -210 1002 -385 1002 -388 0 -3 -451 -178 -1002 -388 -714 -272
-1015 -382 -1043 -382 -28 0 -329 110 -1042 382 -552 210 -1003 385 -1003 388
0 3 449 178 998 387 747 286 1008 382 1042 382 36 1 239 -73 1048 -381z"/>
<path d="M7740 11040 c0 -47 4 -80 10 -80 6 0 10 14 10 30 0 28 2 30 40 30 22
0 40 5 40 10 0 6 -18 10 -40 10 -38 0 -40 2 -40 30 0 29 2 30 46 30 27 0 43 4
39 10 -3 6 -28 10 -56 10 l-49 0 0 -80z"/>
<path d="M8240 11040 c0 -47 4 -80 10 -80 6 0 10 20 10 44 0 44 19 74 40 61 5
-3 10 -26 10 -50 0 -24 5 -47 10 -50 6 -4 10 15 10 49 0 51 -2 56 -24 62 -14
3 -30 3 -35 -1 -7 -4 -11 4 -11 19 0 14 -4 26 -10 26 -6 0 -10 -33 -10 -80z"/>
<path d="M8610 11040 c0 -47 4 -80 10 -80 6 0 10 11 10 25 0 33 13 32 38 -2
11 -16 23 -25 27 -21 4 3 -3 20 -16 37 l-23 31 24 25 c32 34 13 32 -22 -2
l-28 -27 0 47 c0 26 -4 47 -10 47 -6 0 -10 -33 -10 -80z"/>
<path d="M9140 11040 c0 -47 4 -80 10 -80 6 0 10 11 10 25 0 33 13 32 38 -2
11 -16 23 -25 27 -21 4 3 -3 20 -16 37 l-23 31 24 25 c32 34 13 32 -22 -2
l-28 -27 0 47 c0 26 -4 47 -10 47 -6 0 -10 -33 -10 -80z"/>
<path d="M9840 11046 c0 -41 5 -78 10 -81 6 -4 10 5 10 19 0 33 15 33 45 -1
30 -34 33 -16 4 21 l-21 27 23 25 c31 33 12 31 -23 -3 l-28 -27 0 47 c0 26 -4
47 -10 47 -6 0 -10 -31 -10 -74z"/>
<path d="M8850 11097 c0 -9 -5 -17 -12 -17 -9 0 -9 -3 0 -12 7 -7 12 -31 12
-55 0 -42 20 -67 38 -48 4 4 1 10 -5 12 -15 5 -18 89 -4 95 4 2 0 12 -10 22
-17 17 -19 18 -19 3z"/>
<path d="M9555 11100 c-9 -14 -8 -92 1 -122 6 -19 34 -25 34 -8 0 6 -4 10 -10
10 -5 0 -10 20 -10 45 0 29 4 45 13 45 8 0 9 3 1 8 -6 4 -13 14 -16 22 -4 12
-6 12 -13 0z"/>
<path d="M7880 11065 c-17 -21 -17 -69 0 -90 20 -24 62 -15 79 17 23 40 5 82
-35 86 -19 2 -36 -3 -44 -13z m65 -26 c9 -29 -4 -59 -25 -59 -36 0 -48 61 -17
82 15 9 35 -1 42 -23z"/>
<path d="M7990 11024 c0 -29 5 -56 10 -59 6 -4 10 8 10 29 0 44 9 66 26 66 8
0 14 4 14 9 0 5 -13 9 -30 9 -29 -1 -30 -2 -30 -54z"/>
<path d="M8140 11064 c-18 -21 -17 -72 2 -90 17 -18 64 -10 72 12 7 17 2 18
-25 2 -17 -11 -22 -10 -35 6 -18 25 -18 41 2 61 13 12 19 13 30 4 8 -7 18 -9
21 -5 9 9 -16 26 -38 26 -9 0 -22 -7 -29 -16z"/>
<path d="M8360 11036 c0 -27 6 -51 16 -60 18 -19 20 -19 45 -6 13 8 19 7 19 0
0 -6 5 -8 10 -5 6 3 10 31 10 61 0 30 -4 54 -10 54 -5 0 -10 -15 -10 -33 0
-41 -21 -73 -44 -64 -11 5 -16 19 -16 52 0 25 -4 45 -10 45 -5 0 -10 -20 -10
-44z"/>
<path d="M8490 11017 c0 -36 4 -56 10 -52 6 3 10 26 10 50 0 42 11 57 38 48 7
-3 12 -23 12 -54 0 -27 5 -49 10 -49 15 0 12 96 -3 109 -7 6 -28 9 -45 8 l-32
-2 0 -58z"/>
<path d="M8915 11069 c-11 -17 3 -23 20 -9 12 10 18 10 30 0 19 -16 10 -30
-19 -30 -24 0 -46 -17 -46 -37 0 -20 37 -35 59 -23 13 7 22 7 26 0 23 -36 26
49 3 93 -10 19 -63 24 -73 6z m55 -69 c-10 -19 -50 -29 -50 -12 0 14 24 32 42
32 16 0 17 -3 8 -20z"/>
<path d="M9037 11073 c-18 -17 -5 -44 29 -58 45 -19 36 -39 -15 -32 -33 6 -34
5 -17 -8 25 -19 51 -19 70 0 20 21 11 41 -25 54 -16 5 -29 14 -29 20 0 17 20
23 36 10 16 -13 30 -6 19 10 -7 12 -58 15 -68 4z"/>
<path d="M9310 11026 c0 -30 5 -58 10 -61 6 -4 10 17 10 54 0 34 -4 61 -10 61
-5 0 -10 -24 -10 -54z"/>
<path d="M9360 11018 c0 -32 4 -58 10 -58 6 0 10 18 10 39 0 47 24 78 46 60 8
-7 14 -30 14 -56 0 -27 4 -42 10 -38 13 8 13 56 0 89 -8 22 -15 26 -50 24
l-40 -1 0 -59z"/>
<path d="M9620 11065 c-14 -17 0 -21 16 -5 14 14 44 2 44 -16 0 -9 -11 -14
-30 -14 -38 0 -57 -31 -34 -55 9 -9 23 -14 30 -11 8 3 21 9 29 12 8 3 15 1 15
-5 0 -6 4 -11 9 -11 11 0 3 77 -11 103 -11 21 -51 22 -68 2z m60 -54 c0 -16
-30 -33 -46 -27 -13 5 -14 9 -4 21 13 16 50 21 50 6z"/>
<path d="M9741 11071 c-20 -13 -5 -45 29 -58 44 -16 39 -37 -7 -30 -34 6 -35
5 -21 -10 32 -31 95 9 67 43 -6 8 -20 14 -30 14 -23 0 -34 19 -20 33 9 9 17 8
32 -2 18 -10 20 -10 17 1 -5 16 -48 22 -67 9z"/>
<path d="M9960 11065 c-15 -18 -7 -30 31 -49 12 -6 25 -17 27 -25 4 -11 -4
-13 -34 -8 -36 6 -37 5 -20 -8 25 -19 37 -19 61 -1 25 18 13 44 -25 57 -16 6
-30 15 -30 20 0 15 30 23 43 10 17 -17 31 -13 17 4 -16 19 -54 19 -70 0z"/>
<path d="M8727 10923 c18 -2 50 -2 70 0 21 2 7 4 -32 4 -38 0 -55 -2 -38 -4z"/>
<path d="M6620 11000 c0 -32 4 -50 12 -50 19 0 148 43 148 50 0 7 -129 50
-148 50 -8 0 -12 -18 -12 -50z"/>
<path d="M6415 10985 l-25 -24 0 -4364 c0 -4283 0 -4365 19 -4388 l19 -24
1199 -3 c1125 -2 1223 0 1255 22 6 4 12 376 6 376 -5 0 -8 -75 -8 -168 0 -135
-3 -172 -16 -190 l-15 -22 -1204 0 c-1081 0 -1205 2 -1219 16 -15 14 -16 425
-16 4379 0 3954 1 4365 16 4379 12 12 36 16 100 16 49 0 84 4 84 10 0 6 -35
10 -85 10 -78 0 -88 -2 -110 -25z"/>
<path d="M8156 9364 c-377 -234 -691 -435 -697 -445 -6 -13 -6 -25 0 -38 6
-10 320 -211 697 -445 618 -383 692 -426 729 -426 37 0 110 43 721 421 373
231 686 429 696 440 15 17 31 19 195 19 126 0 183 -4 191 -12 9 -9 12 -538 12
-2319 l0 -2308 -22 -15 c-20 -14 -121 -16 -894 -16 -831 0 -872 -1 -887 -18
-13 -15 -17 -39 -17 -110 l0 -92 -26 0 c-28 0 -29 8 9 -113 l21 -68 28 82 c15
46 28 87 28 91 0 4 -11 8 -25 8 -25 0 -25 1 -25 80 0 73 3 83 25 105 l24 25
869 0 c734 0 871 2 888 14 19 14 19 51 22 2326 l2 2311 -24 24 c-25 25 -27 25
-201 25 -162 0 -178 2 -193 19 -10 11 -323 209 -696 440 -611 378 -684 421
-721 421 -37 0 -111 -43 -729 -426z m1430 -15 c373 -231 686 -427 694 -435 13
-12 13 -16 0 -28 -35 -34 -1375 -856 -1395 -856 -20 0 -1360 822 -1395 856
-12 12 -12 16 0 28 35 34 1375 856 1395 856 12 0 327 -189 701 -421z"/>
<path d="M8830 9230 c0 -83 16 -112 22 -39 2 27 9 46 21 53 23 15 37 -6 37
-56 0 -21 5 -38 10 -38 11 0 13 52 4 87 -7 24 -34 35 -58 21 -13 -7 -16 -4
-16 22 0 16 -4 30 -10 30 -6 0 -10 -33 -10 -80z"/>
<path d="M8960 9300 c0 -5 5 -10 10 -10 6 0 10 5 10 10 0 6 -4 10 -10 10 -5 0
-10 -4 -10 -10z"/>
<path d="M9130 9230 c0 -47 4 -80 10 -80 6 0 10 11 10 25 0 14 3 25 6 25 3 0
15 -11 26 -25 27 -35 44 -31 19 4 -25 35 -26 44 -6 61 9 7 13 15 10 18 -3 3
-16 -5 -30 -18 l-25 -23 0 46 c0 26 -4 47 -10 47 -6 0 -10 -33 -10 -80z"/>
<path d="M9300 9300 c0 -5 5 -10 10 -10 6 0 10 5 10 10 0 6 -4 10 -10 10 -5 0
-10 -4 -10 -10z"/>
<path d="M8330 9225 c0 -43 4 -75 10 -75 6 0 10 14 10 30 0 29 2 30 46 30 27
0 43 4 39 10 -3 6 -24 10 -46 10 -35 0 -39 3 -39 25 0 23 4 25 45 25 25 0 45
5 45 10 0 6 -25 10 -55 10 l-55 0 0 -75z"/>
<path d="M8490 9263 c-22 -9 -30 -24 -30 -58 0 -38 16 -55 50 -55 35 0 50 17
50 56 0 23 -7 38 -22 48 -24 17 -25 17 -48 9z m34 -19 c21 -8 22 -70 1 -78
-28 -10 -45 5 -45 39 0 18 6 36 13 38 6 3 13 6 14 6 1 1 8 -2 17 -5z"/>
<path d="M9390 9260 c-7 -4 -19 -6 -27 -3 -10 4 -13 -8 -13 -51 0 -31 5 -56
10 -56 6 0 10 20 10 44 0 31 5 46 16 50 30 11 34 6 34 -44 0 -27 5 -50 10 -50
6 0 10 22 10 50 0 52 -21 78 -50 60z"/>
<path d="M8590 9203 c0 -29 5 -53 10 -53 6 0 10 20 10 45 0 31 5 47 18 54 14
9 13 10 -10 9 -27 -2 -28 -5 -28 -55z"/>
<path d="M8732 9248 c-7 -7 -12 -26 -12 -43 0 -17 5 -36 12 -43 17 -17 53 -15
68 3 14 17 0 21 -16 5 -20 -20 -44 0 -44 36 0 39 21 54 45 34 9 -7 19 -10 22
-6 10 10 -17 26 -42 26 -12 0 -26 -5 -33 -12z"/>
<path d="M8960 9205 c0 -30 5 -55 10 -55 6 0 10 25 10 55 0 30 -4 55 -10 55
-5 0 -10 -25 -10 -55z"/>
<path d="M9000 9203 c0 -29 5 -53 10 -53 6 0 10 15 10 33 0 41 21 73 44 64 11
-5 16 -19 16 -52 0 -25 5 -45 10 -45 12 0 13 79 2 98 -5 7 -26 11 -50 10 l-42
-1 0 -54z"/>
<path d="M9300 9205 c0 -30 5 -55 10 -55 6 0 10 25 10 55 0 30 -4 55 -10 55
-5 0 -10 -25 -10 -55z"/>
<path d="M8070 8960 c0 -86 17 -111 22 -32 3 40 6 47 26 50 20 3 22 0 22 -47
0 -28 5 -51 10 -51 6 0 10 22 10 49 0 54 -17 77 -50 66 -17 -5 -20 -2 -20 19
0 14 -4 26 -10 26 -6 0 -10 -33 -10 -80z"/>
<path d="M8440 8960 c0 -47 4 -80 10 -80 6 0 10 11 10 25 0 14 3 25 6 25 3 0
15 -11 26 -25 24 -31 47 -33 24 -2 -28 39 -29 47 -6 73 32 33 13 31 -22 -3
l-28 -27 0 47 c0 26 -4 47 -10 47 -6 0 -10 -33 -10 -80z"/>
<path d="M8970 8960 c0 -47 4 -80 10 -80 6 0 10 11 10 25 0 14 4 25 9 25 5 0
16 -11 25 -25 9 -14 21 -25 27 -25 7 0 5 9 -5 23 -28 39 -29 47 -6 73 32 33
13 31 -22 -3 l-28 -27 0 47 c0 26 -4 47 -10 47 -6 0 -10 -33 -10 -80z"/>
<path d="M9250 8960 c0 -47 4 -80 10 -80 6 0 10 15 10 34 0 47 9 66 30 66 21
0 30 -19 30 -66 0 -19 5 -34 11 -34 16 0 5 100 -12 111 -8 5 -24 7 -36 4 -19
-5 -23 -1 -23 20 0 14 -4 25 -10 25 -6 0 -10 -33 -10 -80z"/>
<path d="M9620 8960 c0 -47 4 -80 10 -80 6 0 10 11 10 25 0 14 4 25 10 25 5 0
17 -11 26 -25 9 -14 23 -25 31 -25 10 0 7 10 -12 34 l-25 33 21 27 c27 34 13
34 -23 -1 l-28 -27 0 47 c0 26 -4 47 -10 47 -6 0 -10 -33 -10 -80z"/>
<path d="M8674 9005 c-10 -10 -10 -48 2 -102 3 -15 12 -23 26 -23 20 0 20 1 5
18 -20 22 -23 78 -5 84 10 4 9 8 -2 20 -12 11 -18 12 -26 3z"/>
<path d="M7964 8975 c-18 -28 -11 -83 12 -92 23 -9 64 6 64 24 0 15 -2 15 -18
0 -24 -22 -52 -5 -52 34 0 34 23 48 51 30 21 -13 26 -2 7 17 -19 19 -46 14
-64 -13z"/>
<path d="M8190 8951 c0 -56 13 -71 58 -68 32 2 32 2 32 60 0 31 -4 57 -10 57
-5 0 -10 -19 -10 -43 0 -46 -14 -69 -36 -60 -9 3 -14 22 -14 54 0 27 -4 49
-10 49 -5 0 -10 -22 -10 -49z"/>
<path d="M8310 8939 c0 -33 4 -59 10 -59 6 0 10 17 10 38 0 46 12 65 36 60 15
-2 20 -14 22 -51 4 -58 22 -63 22 -4 0 57 -11 70 -59 73 l-41 2 0 -59z"/>
<path d="M8750 8990 c-8 -5 -11 -12 -7 -16 4 -4 12 -3 18 3 6 6 18 9 25 6 21
-8 17 -33 -5 -33 -34 0 -51 -12 -51 -36 0 -28 42 -44 65 -24 10 9 15 9 15 1 0
-6 7 -11 15 -11 12 0 13 4 5 19 -5 11 -10 33 -10 48 0 46 -33 66 -70 43z m50
-65 c0 -19 -36 -39 -45 -25 -8 13 13 40 31 40 8 0 14 -7 14 -15z"/>
<path d="M8867 8993 c-16 -16 -5 -44 24 -58 49 -26 27 -50 -26 -29 -18 7 -18
6 -6 -9 23 -29 81 -19 81 15 0 13 -11 24 -30 31 -42 16 -41 42 1 33 27 -5 30
-4 19 9 -13 15 -51 20 -63 8z"/>
<path d="M9158 8989 c-12 -7 -18 -22 -18 -47 0 -41 14 -62 40 -62 21 0 57 26
48 35 -4 4 -14 0 -24 -9 -22 -22 -44 -4 -44 36 0 33 23 47 45 28 9 -7 19 -10
23 -6 8 8 -26 36 -42 36 -6 0 -19 -5 -28 -11z"/>
<path d="M9372 8950 c3 -28 8 -53 12 -57 4 -4 24 -8 46 -9 l40 -2 0 59 c0 33
-4 59 -10 59 -5 0 -10 -20 -10 -45 0 -34 -5 -47 -20 -55 -24 -13 -40 12 -40
64 0 20 -5 36 -11 36 -8 0 -10 -17 -7 -50z"/>
<path d="M9500 8938 c0 -69 18 -78 22 -10 3 40 6 47 26 50 20 3 22 0 22 -47 0
-28 5 -51 10 -51 15 0 12 96 -2 107 -7 6 -28 10 -45 10 l-33 0 0 -59z"/>
<path d="M9741 8986 c-13 -16 -5 -46 13 -46 7 0 21 -6 32 -14 15 -12 17 -17 6
-28 -10 -10 -16 -10 -33 0 -22 14 -35 10 -24 -7 9 -15 58 -14 73 1 21 21 13
39 -23 54 -19 8 -35 18 -35 23 0 14 25 20 41 10 23 -15 35 -9 15 6 -25 19 -50
19 -65 1z"/>
<path d="M9080 8890 c0 -5 7 -10 15 -10 8 0 15 5 15 10 0 6 -7 10 -15 10 -8 0
-15 -4 -15 -10z"/>
<path d="M8557 8843 c18 -2 50 -2 70 0 21 2 7 4 -32 4 -38 0 -55 -2 -38 -4z"/>
<path d="M1010 9340 c0 -47 4 -80 10 -80 6 0 10 33 10 80 0 47 -4 80 -10 80
-6 0 -10 -33 -10 -80z"/>
<path d="M1060 9340 c0 -47 4 -80 10 -80 6 0 10 33 10 80 0 47 -4 80 -10 80
-6 0 -10 -33 -10 -80z"/>
<path d="M1280 9340 c0 -83 16 -112 22 -39 2 27 9 46 21 53 23 15 37 -6 37
-56 0 -21 5 -38 10 -38 13 0 13 51 0 85 -9 23 -15 27 -40 23 -27 -4 -30 -2
-30 24 0 15 -4 28 -10 28 -6 0 -10 -33 -10 -80z"/>
<path d="M1650 9340 c0 -47 4 -80 10 -80 6 0 10 8 10 18 0 32 13 34 36 5 12
-16 25 -25 28 -22 4 3 -3 18 -15 33 l-21 27 23 25 c31 33 12 31 -23 -3 l-28
-27 0 52 c0 29 -4 52 -10 52 -6 0 -10 -33 -10 -80z"/>
<path d="M2120 9340 c0 -47 4 -80 10 -80 6 0 10 8 10 18 0 31 11 33 32 7 28
-36 43 -31 18 6 l-22 30 23 25 c15 16 18 24 9 24 -8 0 -24 -12 -37 -27 l-22
-28 -1 53 c0 28 -4 52 -10 52 -6 0 -10 -33 -10 -80z"/>
<path d="M1830 9386 c0 -8 -6 -17 -12 -19 -10 -4 -10 -6 0 -6 8 -1 12 -18 12
-51 0 -45 2 -50 23 -49 12 0 16 3 10 6 -8 3 -13 23 -13 48 0 25 5 45 13 48 10
4 10 6 0 6 -7 1 -13 8 -13 16 0 8 -4 15 -10 15 -5 0 -10 -6 -10 -14z"/>
<path d="M895 9359 c-11 -17 3 -23 20 -9 15 13 45 7 45 -9 0 -5 -15 -12 -34
-15 -19 -4 -37 -14 -40 -22 -8 -21 -8 -20 9 -38 12 -11 22 -13 39 -6 13 5 34
7 47 4 13 -2 18 -2 12 2 -7 3 -13 18 -13 32 0 57 -10 72 -46 72 -18 0 -36 -5
-39 -11z m55 -69 c-11 -20 -31 -26 -43 -13 -11 10 13 33 35 33 16 0 17 -3 8
-20z"/>
<path d="M1182 9358 c-24 -30 -13 -97 16 -99 29 -2 47 3 54 14 10 16 0 23 -14
9 -18 -18 -38 -14 -47 10 -15 42 16 85 43 58 16 -16 30 -12 16 5 -15 18 -54
20 -68 3z"/>
<path d="M1402 9320 c6 -57 8 -61 34 -60 11 0 29 1 42 1 20 0 22 5 22 55 0 63
-17 73 -22 13 -2 -27 -9 -46 -21 -53 -23 -15 -37 6 -37 57 0 21 -5 37 -11 37
-8 0 -10 -17 -7 -50z"/>
<path d="M1530 9314 c0 -30 5 -54 10 -54 6 0 10 20 10 44 0 31 5 46 16 50 26
10 34 -2 34 -50 0 -24 5 -44 11 -44 6 0 9 21 7 53 l-3 52 -42 1 -43 2 0 -54z"/>
<path d="M1895 9359 c-4 -6 -4 -13 0 -17 4 -4 10 -1 12 6 6 16 40 15 46 -2 4
-10 -5 -16 -28 -20 -34 -7 -49 -25 -39 -51 6 -15 19 -20 39 -15 6 1 22 2 36 2
25 -1 25 1 19 42 -3 23 -10 47 -14 54 -9 15 -62 16 -71 1z m55 -69 c-16 -30
-55 -25 -43 6 3 8 16 14 29 14 22 0 23 -3 14 -20z"/>
<path d="M2017 9363 c-16 -15 -6 -43 18 -49 13 -3 29 -12 36 -20 16 -19 -17
-31 -42 -15 -15 9 -19 8 -19 -3 0 -7 9 -16 20 -19 60 -16 88 44 30 64 -41 15
-41 44 0 35 19 -3 29 -2 25 4 -7 11 -58 14 -68 3z"/>
<path d="M2234 9356 c-7 -18 12 -46 31 -46 7 0 18 -7 25 -15 10 -12 9 -16 -5
-21 -10 -4 -26 -2 -36 5 -12 7 -19 8 -19 1 0 -14 40 -28 61 -23 41 11 30 56
-16 67 -14 4 -25 13 -25 21 0 18 31 20 49 3 11 -11 13 -10 9 2 -6 21 -66 26
-74 6z"/>
<path d="M7270 8900 l0 -58 80 26 c44 14 80 29 80 32 0 3 -36 18 -80 32 l-80
26 0 -58z"/>
<path d="M1328 8881 l-33 -29 -5 -890 -5 -890 -24 -26 c-15 -16 -41 -29 -63
-32 -49 -8 -49 -20 0 -28 22 -3 48 -16 63 -32 l24 -26 5 -890 5 -890 33 -29
c32 -28 72 -39 72 -19 0 6 -10 14 -22 19 -13 5 -32 19 -43 31 -20 22 -20 40
-25 910 l-5 888 -24 26 -24 26 24 26 24 26 5 888 c5 870 5 888 25 910 11 12
30 26 43 31 12 5 22 13 22 19 0 20 -40 9 -72 -19z"/>
<path d="M4800 8900 c0 -6 10 -14 23 -19 12 -5 31 -19 42 -31 20 -22 20 -40
25 -910 l5 -888 24 -26 24 -26 -24 -26 -24 -26 -5 -888 c-5 -870 -5 -888 -25
-910 -11 -12 -30 -26 -42 -31 -13 -5 -23 -13 -23 -19 0 -20 40 -9 72 19 l33
29 5 890 5 890 24 26 c15 16 41 29 63 32 21 4 38 10 38 14 0 4 -17 10 -38 14
-22 3 -48 16 -63 32 l-24 26 -5 890 -5 890 -33 29 c-32 28 -72 39 -72 19z"/>
<path d="M7082 8900 c-12 -5 -27 -21 -32 -36 -7 -17 -9 -791 -8 -2234 3 -2155
3 -2208 22 -2229 l19 -21 887 0 c837 0 888 1 903 18 13 14 17 49 19 200 2 100
0 182 -4 182 -5 0 -8 -78 -8 -173 0 -134 -3 -178 -14 -193 -14 -19 -36 -19
-890 -22 -866 -2 -876 -2 -896 18 -20 20 -20 27 -20 2233 0 2132 1 2215 18
2230 14 13 38 17 100 17 48 0 82 4 82 10 0 13 -146 12 -178 0z"/>
<path d="M2410 8503 c0 -29 -3 -34 -12 -25 -34 34 -78 -1 -78 -63 0 -51 27
-79 64 -66 11 5 27 6 34 4 9 -4 12 19 12 91 0 57 -4 96 -10 96 -5 0 -10 -17
-10 -37z m-12 -45 c18 -18 15 -75 -5 -87 -28 -15 -53 5 -53 42 0 33 15 57 35
57 6 0 16 -5 23 -12z"/>
<path d="M2470 8530 c0 -5 5 -10 10 -10 6 0 10 5 10 10 0 6 -4 10 -10 10 -5 0
-10 -4 -10 -10z"/>
<path d="M3520 8530 c0 -5 5 -10 10 -10 6 0 10 5 10 10 0 6 -4 10 -10 10 -5 0
-10 -4 -10 -10z"/>
<path d="M2470 8420 c0 -40 4 -70 10 -70 6 0 10 30 10 70 0 40 -4 70 -10 70
-6 0 -10 -30 -10 -70z"/>
<path d="M2543 8483 c-7 -2 -13 -16 -13 -29 0 -18 9 -28 37 -41 20 -10 38 -24
41 -30 5 -19 -27 -28 -49 -15 -29 18 -46 15 -27 -5 20 -19 77 -20 90 -1 16 26
4 51 -32 63 -42 14 -54 45 -18 45 13 0 29 -5 36 -12 6 -6 15 -8 19 -4 20 20
-49 44 -84 29z"/>
<path d="M2677 8472 c-22 -24 -22 -95 -2 -112 28 -23 115 -7 92 17 -4 4 -13 1
-19 -5 -16 -16 -34 -15 -52 4 -26 26 -18 34 34 34 43 0 50 3 50 20 0 27 -35
60 -63 60 -13 0 -31 -8 -40 -18z m71 -24 c3 -15 -4 -18 -32 -18 -38 0 -44 8
-24 28 17 17 52 11 56 -10z"/>
<path d="M2838 8483 c-21 -5 -32 -33 -13 -33 8 0 15 5 15 11 0 18 45 5 48 -13
3 -14 -3 -18 -25 -18 -46 0 -69 -28 -51 -62 10 -20 63 -25 74 -7 4 8 9 8 17 0
6 -6 18 -11 26 -11 12 0 12 3 3 12 -7 7 -12 31 -12 54 0 61 -25 82 -82 67z
m57 -73 c6 -10 -29 -50 -45 -50 -6 0 -13 7 -17 16 -10 28 47 59 62 34z"/>
<path d="M2973 8483 c-7 -2 -13 -16 -13 -29 0 -18 9 -28 37 -41 20 -10 38 -24
41 -30 5 -19 -27 -28 -49 -15 -27 17 -47 16 -29 -2 27 -26 86 -24 95 3 9 29
-3 48 -38 58 -40 11 -50 43 -13 43 14 0 28 -5 31 -10 4 -6 11 -7 17 -4 7 5 4
12 -7 21 -19 13 -49 16 -72 6z"/>
<path d="M3107 8472 c-22 -24 -22 -95 -2 -112 28 -23 115 -7 92 17 -4 4 -13 1
-19 -5 -16 -16 -34 -15 -52 4 -26 26 -18 34 34 34 43 0 50 3 50 20 0 27 -35
60 -63 60 -13 0 -31 -8 -40 -18z m71 -24 c3 -15 -4 -18 -32 -18 -38 0 -44 8
-24 28 17 17 52 11 56 -10z"/>
<path d="M3403 8483 c-7 -2 -13 -16 -13 -29 0 -19 8 -29 34 -39 40 -17 48 -26
36 -44 -8 -13 -21 -12 -65 4 -18 7 -18 6 -5 -8 26 -27 86 -26 95 2 9 29 -3 48
-38 58 -39 11 -50 43 -15 43 13 0 29 -5 36 -12 9 -9 12 -8 12 4 0 24 -43 35
-77 21z"/>
<path d="M3520 8420 c0 -40 4 -70 10 -70 6 0 10 30 10 70 0 40 -4 70 -10 70
-6 0 -10 -30 -10 -70z"/>
<path d="M3598 8479 c-22 -12 -32 -67 -19 -102 8 -21 17 -27 39 -27 15 0 33 5
40 12 9 9 12 7 12 -9 0 -33 -26 -49 -55 -33 -31 16 -47 4 -21 -16 27 -19 52
-18 76 6 17 17 20 33 20 100 0 47 -4 80 -10 80 -5 0 -10 -5 -10 -10 0 -7 -6
-7 -19 0 -24 12 -31 12 -53 -1z m48 -17 c36 -23 20 -96 -19 -90 -18 2 -23 11
-25 42 -4 46 16 67 44 48z"/>
<path d="M3730 8420 c0 -40 4 -70 10 -70 6 0 10 18 10 41 0 49 15 79 39 79 23
0 31 -19 31 -76 0 -24 5 -44 10 -44 15 0 12 104 -4 126 -13 17 -18 18 -45 7
-17 -6 -31 -7 -31 -2 0 5 -4 9 -10 9 -6 0 -10 -30 -10 -70z"/>
<path d="M3220 8300 c0 -6 32 -10 75 -10 43 0 75 4 75 10 0 6 -32 10 -75 10
-43 0 -75 -4 -75 -10z"/>
<path d="M8880 7895 l0 -95 -26 0 c-28 0 -29 8 9 -113 l21 -68 28 82 c33 99
33 99 8 99 -19 0 -20 7 -20 95 0 57 -4 95 -10 95 -6 0 -10 -38 -10 -95z"/>
<path d="M2960 7906 c0 -34 0 -34 -30 -23 -43 16 -65 -8 -64 -69 1 -63 8 -68
87 -63 l27 2 0 93 c0 56 -4 94 -10 94 -5 0 -10 -15 -10 -34z m-10 -55 c24 -46
-3 -101 -41 -81 -22 12 -27 85 -6 93 24 10 36 7 47 -12z"/>
<path d="M3020 7820 c0 -40 4 -70 10 -70 6 0 10 20 10 45 0 33 5 50 20 62 11
10 20 21 20 26 0 4 -9 3 -20 -3 -14 -7 -20 -7 -20 0 0 5 -4 10 -10 10 -6 0
-10 -30 -10 -70z"/>
<path d="M3106 7854 c-14 -74 14 -121 61 -103 13 5 30 6 38 3 13 -5 15 6 15
66 0 53 -3 71 -12 68 -8 -3 -14 -26 -16 -54 -3 -51 -22 -77 -48 -67 -10 4 -14
23 -14 64 0 65 -14 79 -24 23z"/>
<path d="M3267 7872 c-20 -22 -22 -81 -4 -106 10 -14 23 -17 45 -14 26 4 32 1
32 -13 0 -21 -38 -35 -53 -20 -14 14 -27 14 -27 1 0 -16 40 -32 65 -26 29 7
45 51 45 127 0 55 -11 81 -25 59 -4 -7 -12 -7 -25 0 -26 14 -34 13 -53 -8z
m61 -14 c20 -20 15 -76 -7 -88 -38 -20 -65 35 -41 81 12 22 30 25 48 7z"/>
<path d="M8091 7584 c-21 -26 -21 -35 -21 -584 0 -549 0 -558 21 -584 l20 -26
774 0 774 0 20 26 c21 26 21 35 21 584 0 549 0 558 -21 584 l-20 26 -774 0
-774 0 -20 -26z m1557 -10 l22 -15 0 -559 0 -559 -22 -15 c-20 -14 -109 -16
-763 -16 -654 0 -743 2 -763 16 l-22 15 0 559 0 559 22 15 c20 14 109 16 763
16 654 0 743 -2 763 -16z"/>
<path d="M8410 7169 l0 -82 47 6 c53 6 83 33 83 74 0 39 -18 61 -58 73 -72 20
-72 19 -72 -71z m88 45 c45 -31 17 -104 -40 -104 -28 0 -28 1 -28 60 0 56 2
60 23 60 12 0 33 -7 45 -16z"/>
<path d="M8970 7170 c0 -47 4 -80 10 -80 6 0 10 33 10 80 0 47 -4 80 -10 80
-6 0 -10 -33 -10 -80z"/>
<path d="M9340 7226 c0 -19 -4 -22 -22 -19 -36 6 -51 -11 -51 -57 0 -48 13
-60 60 -58 l33 1 0 79 c0 45 -4 78 -10 78 -5 0 -10 -11 -10 -24z m0 -72 c0
-23 -6 -37 -16 -41 -22 -8 -46 25 -38 51 15 48 54 40 54 -10z"/>
<path d="M8576 7195 c-20 -21 -21 -54 0 -83 38 -54 111 5 82 66 -16 32 -58 41
-82 17z m68 -27 c7 -28 -10 -58 -33 -58 -32 0 -42 48 -16 74 19 19 41 11 49
-16z"/>
<path d="M8680 7202 c0 -22 32 -112 40 -112 5 0 15 21 23 48 l14 47 13 -48 c7
-26 17 -46 23 -44 10 3 37 79 37 105 0 28 -19 0 -25 -38 -8 -48 -21 -44 -30
10 -4 23 -12 40 -20 40 -8 0 -16 -17 -20 -40 -9 -54 -22 -58 -30 -10 -6 35
-25 67 -25 42z"/>
<path d="M8850 7149 c0 -33 4 -59 10 -59 6 0 10 20 10 45 0 33 5 47 19 54 26
14 31 5 31 -51 0 -26 5 -48 10 -48 11 0 14 109 3 111 -5 1 -25 3 -45 4 l-38 2
0 -58z"/>
<path d="M9032 7198 c-17 -17 -15 -74 4 -92 48 -48 108 21 74 85 -12 22 -59
26 -78 7z m63 -48 c0 -31 -3 -35 -25 -35 -19 0 -26 6 -28 23 -5 36 5 54 30 50
19 -2 23 -9 23 -38z"/>
<path d="M9155 7199 c-11 -17 3 -23 20 -9 13 11 19 11 32 -3 18 -17 13 -22
-31 -29 -31 -5 -44 -35 -24 -55 14 -13 22 -14 41 -6 18 8 28 8 36 0 6 -6 13
-9 15 -6 8 8 -14 103 -27 111 -18 11 -55 10 -62 -3z m55 -69 c-10 -19 -50 -29
-50 -12 0 14 24 32 42 32 16 0 17 -3 8 -20z"/>
<path d="M8535 6982 c-17 -12 -36 -52 -25 -52 5 0 10 -22 10 -50 0 -27 5 -50
10 -50 6 0 10 22 10 49 0 30 5 51 13 54 10 4 10 6 0 6 -16 1 -17 28 -1 33 7 3
8 7 2 11 -5 3 -14 3 -19 -1z"/>
<path d="M9035 6964 c-9 -9 -14 -23 -11 -31 3 -8 6 -16 6 -18 0 -2 17 -9 38
-16 43 -14 55 -28 40 -46 -12 -15 -54 -17 -63 -3 -8 13 -25 13 -25 0 0 -16 48
-31 76 -24 28 7 47 35 38 58 -3 9 -23 20 -45 26 -46 13 -58 29 -35 46 18 13
46 8 58 -10 4 -6 10 -7 14 -3 13 12 -18 37 -47 37 -15 0 -35 -7 -44 -16z"/>
<path d="M9175 6964 c-21 -21 -13 -29 13 -13 22 14 56 5 50 -14 -3 -6 -15 -17
-28 -24 l-24 -12 28 -10 c18 -7 26 -17 24 -28 -5 -25 -39 -29 -55 -7 -7 10
-16 14 -20 11 -12 -13 24 -39 52 -39 40 0 65 55 30 68 -13 5 -13 8 0 21 19 18
19 28 -1 47 -20 21 -48 20 -69 0z"/>
<path d="M8570 6883 c0 -29 5 -53 10 -53 6 0 10 16 10 35 0 22 7 41 21 54 l21
20 -31 -1 c-31 -1 -31 -1 -31 -55z"/>
<path d="M8649 6916 c-24 -52 16 -104 66 -86 22 8 34 44 25 80 -5 20 -13 26
-43 28 -31 3 -39 -1 -48 -22z m60 5 c16 -10 18 -58 3 -73 -13 -13 -40 -4 -49
17 -6 17 12 65 24 65 5 0 14 -4 22 -9z"/>
<path d="M8770 6884 c0 -30 5 -54 10 -54 6 0 10 17 10 39 0 39 20 68 40 56 5
-3 10 -26 10 -51 0 -24 5 -44 10 -44 6 0 10 20 10 44 0 32 5 46 17 50 22 9 33
-10 33 -56 0 -21 5 -38 10 -38 13 0 13 66 0 90 -8 15 -22 18 -80 17 l-70 0 0
-53z"/>
<path d="M2940 7245 c0 -57 4 -95 10 -95 6 0 10 38 10 95 0 57 -4 95 -10 95
-6 0 -10 -38 -10 -95z"/>
<path d="M3150 7298 c0 -24 -3 -66 -6 -95 l-7 -52 30 1 c17 1 35 -2 40 -5 5
-3 19 1 31 9 24 17 31 79 12 115 -12 21 -50 25 -68 7 -9 -9 -12 -4 -12 25 0
20 -4 37 -10 37 -5 0 -10 -19 -10 -42z m78 -40 c18 -18 15 -75 -5 -87 -28 -15
-53 5 -53 42 0 33 15 57 35 57 6 0 16 -5 23 -12z"/>
<path d="M3015 7274 c-21 -21 -13 -29 13 -13 23 14 52 6 52 -16 0 -10 -10 -15
-29 -15 -34 0 -65 -26 -57 -47 3 -8 6 -18 6 -23 0 -15 39 -18 64 -4 14 7 26 9
26 3 0 -5 10 -9 23 -9 13 0 17 3 11 8 -6 4 -13 31 -16 61 -3 29 -11 57 -19 62
-22 14 -56 10 -74 -7z m65 -74 c0 -21 -34 -45 -50 -35 -16 10 -11 43 8 48 34
9 42 7 42 -13z"/>
<path d="M3120 6645 c0 -78 3 -95 15 -95 9 0 15 9 15 23 0 38 12 39 41 5 35
-43 49 -29 16 14 l-26 33 26 27 c39 41 19 48 -22 8 l-35 -34 0 57 c0 44 -3 57
-15 57 -12 0 -15 -17 -15 -95z"/>
<path d="M3260 6730 c0 -5 5 -10 10 -10 6 0 10 5 10 10 0 6 -4 10 -10 10 -5 0
-10 -4 -10 -10z"/>
<path d="M2632 6678 c-24 -24 -13 -49 28 -65 41 -17 52 -39 24 -50 -9 -3 -25
-1 -35 5 -28 18 -46 15 -28 -4 22 -22 79 -21 95 1 17 23 2 53 -31 61 -13 3
-29 12 -36 20 -16 20 17 31 43 15 27 -16 38 -3 14 15 -24 17 -58 18 -74 2z"/>
<path d="M2754 6677 c-9 -23 5 -127 17 -127 5 0 9 24 9 54 0 47 3 56 21 61 28
9 39 -9 39 -67 0 -27 5 -48 10 -48 6 0 10 22 10 49 0 51 18 78 45 67 11 -4 15
-21 15 -61 0 -30 5 -55 10 -55 17 0 12 107 -6 124 -18 19 -36 20 -51 5 -8 -8
-17 -7 -32 3 -16 10 -25 10 -40 1 -13 -8 -21 -9 -29 -1 -8 8 -13 7 -18 -5z"/>
<path d="M2990 6670 c-35 -35 -23 -103 20 -118 47 -17 74 5 78 60 2 32 -2 50
-13 62 -22 22 -61 20 -85 -4z m74 -16 c11 -28 6 -71 -9 -84 -34 -28 -78 29
-57 75 13 29 56 35 66 9z"/>
<path d="M3260 6620 c0 -40 4 -70 10 -70 6 0 10 30 10 70 0 40 -4 70 -10 70
-6 0 -10 -30 -10 -70z"/>
<path d="M3320 6620 c0 -81 17 -95 22 -19 6 96 68 89 68 -8 0 -25 5 -43 11
-43 15 0 7 116 -9 132 -9 9 -20 10 -42 1 -17 -6 -30 -7 -30 -2 0 5 -4 9 -10 9
-6 0 -10 -30 -10 -70z"/>
<path d="M3477 6672 c-20 -22 -22 -81 -4 -106 10 -14 23 -17 45 -14 26 4 32 1
32 -13 0 -21 -38 -35 -53 -20 -14 14 -27 14 -27 1 0 -16 40 -32 65 -26 29 7
45 51 45 127 0 55 -11 81 -25 59 -4 -7 -12 -7 -25 0 -26 14 -34 13 -53 -8z
m61 -14 c20 -20 15 -76 -7 -88 -38 -20 -65 35 -41 81 12 22 30 25 48 7z"/>
<path d="M8880 6290 c0 -90 0 -90 -26 -90 -28 0 -29 8 9 -113 l21 -68 28 82
c33 99 33 99 8 99 -19 0 -20 7 -20 90 0 53 -4 90 -10 90 -6 0 -10 -37 -10 -90z"/>
<path d="M3200 6105 c0 -8 -4 -15 -9 -15 -5 0 -7 -21 -4 -47 7 -82 12 -93 35
-93 17 0 19 3 10 12 -16 16 -16 105 1 112 10 5 10 7 0 12 -7 3 -13 12 -13 20
0 8 -4 14 -10 14 -5 0 -10 -7 -10 -15z"/>
<path d="M3420 6106 c0 -8 -6 -17 -12 -20 -10 -5 -10 -7 0 -12 7 -4 12 -27 12
-65 0 -58 1 -59 28 -59 23 1 24 2 10 11 -22 12 -26 104 -5 113 10 5 10 7 0 12
-7 3 -13 12 -13 20 0 8 -4 14 -10 14 -5 0 -10 -6 -10 -14z"/>
<path d="M2614 6073 c-12 -12 -13 -18 -4 -21 7 -3 16 1 20 8 10 17 44 8 48
-13 3 -13 -3 -17 -27 -17 -29 0 -61 -22 -61 -41 0 -5 9 -18 20 -29 19 -19 40
-18 68 3 8 6 12 6 12 -2 0 -6 10 -11 23 -10 12 0 16 3 10 6 -8 3 -13 24 -13
53 0 54 -18 80 -55 80 -13 0 -31 -8 -41 -17z m66 -73 c0 -21 -34 -45 -50 -35
-16 10 -11 43 8 48 34 9 42 7 42 -13z"/>
<path d="M2750 6020 c0 -40 4 -70 10 -70 6 0 10 22 10 48 0 50 12 72 41 72 19
0 29 -28 29 -82 0 -21 5 -38 10 -38 15 0 12 104 -4 126 -13 17 -18 18 -45 7
-17 -6 -31 -7 -31 -2 0 5 -4 9 -10 9 -6 0 -10 -30 -10 -70z"/>
<path d="M2897 6083 c-15 -15 -3 -133 14 -133 5 0 9 22 9 49 0 51 18 78 45 67
11 -4 15 -21 15 -61 0 -44 3 -55 16 -55 14 0 16 10 12 60 -5 74 -17 89 -57 73
-17 -6 -33 -7 -38 -2 -5 5 -12 6 -16 2z"/>
<path d="M3057 6072 c-20 -22 -22 -81 -3 -107 17 -24 75 -23 93 1 19 27 16 88
-5 107 -24 22 -65 21 -85 -1z m73 -21 c14 -27 13 -54 -4 -76 -12 -17 -18 -18
-40 -7 -20 9 -26 19 -26 45 0 54 47 79 70 38z"/>
<path d="M3284 6076 c-24 -18 -13 -31 14 -15 23 14 52 6 52 -16 0 -10 -10 -15
-34 -15 -41 0 -60 -21 -52 -55 5 -19 13 -25 34 -25 15 0 34 6 41 13 11 10 14
10 18 0 3 -7 14 -13 25 -13 18 0 18 1 4 16 -10 9 -16 33 -16 58 0 23 -5 47
-12 54 -16 16 -50 15 -74 -2z m66 -68 c-1 -31 -40 -54 -59 -35 -17 17 -13 27
12 37 32 13 47 12 47 -2z"/>
<path d="M3500 6070 c-41 -41 -12 -122 44 -122 15 0 35 7 44 16 14 14 14 16 1
16 -8 0 -20 -5 -26 -11 -14 -14 -53 5 -53 26 0 11 13 15 49 15 46 0 49 1 44
23 -14 56 -66 74 -103 37z m64 -6 c30 -12 18 -34 -19 -34 -22 0 -35 5 -35 13
0 26 21 34 54 21z"/>
<path d="M8091 5984 c-21 -26 -21 -35 -21 -584 0 -549 0 -558 21 -584 l20 -26
774 0 774 0 20 26 c21 26 21 35 21 584 0 549 0 558 -21 584 l-20 26 -774 0
-774 0 -20 -26z m1557 -10 l22 -15 0 -559 0 -559 -22 -15 c-20 -14 -109 -16
-763 -16 -654 0 -743 2 -763 16 l-22 15 0 559 0 559 22 15 c20 14 109 16 763
16 654 0 743 -2 763 -16z"/>
<path d="M8280 5643 c-74 -27 -63 -153 13 -153 26 0 67 26 67 42 0 6 -8 4 -18
-5 -22 -20 -63 -22 -80 -5 -7 7 -12 28 -12 48 0 20 5 41 12 48 15 15 54 16 63
2 3 -5 14 -10 23 -10 14 0 14 2 2 14 -19 17 -50 26 -70 19z"/>
<path d="M8700 5572 l0 -79 35 2 c44 1 57 14 57 58 0 48 -9 60 -43 55 -25 -4
-29 -1 -29 19 0 13 -4 23 -10 23 -6 0 -10 -33 -10 -78z m72 0 c8 -36 -4 -63
-26 -60 -24 3 -35 50 -16 73 14 17 38 9 42 -13z"/>
<path d="M8820 5640 c0 -5 5 -10 10 -10 6 0 10 5 10 10 0 6 -4 10 -10 10 -5 0
-10 -4 -10 -10z"/>
<path d="M9340 5639 c0 -5 5 -7 10 -4 6 3 10 8 10 11 0 2 -4 4 -10 4 -5 0 -10
-5 -10 -11z"/>
<path d="M9450 5570 c0 -47 4 -80 10 -80 6 0 10 19 10 43 0 46 14 69 36 60 9
-3 14 -22 14 -54 0 -27 5 -49 10 -49 6 0 10 22 10 49 0 54 -17 77 -50 68 -16
-4 -20 0 -20 19 0 13 -4 24 -10 24 -6 0 -10 -33 -10 -80z"/>
<path d="M9382 5615 c-7 -9 -8 -15 -2 -15 5 0 10 -22 10 -50 0 -36 4 -52 15
-57 9 -3 19 -2 23 2 4 4 1 10 -5 12 -16 6 -18 93 -2 93 6 0 4 7 -5 15 -18 18
-18 18 -34 0z"/>
<path d="M8401 5601 c-19 -12 -20 -74 -2 -95 35 -42 100 5 86 61 -3 15 -12 31
-18 35 -16 10 -49 10 -66 -1z m63 -28 c10 -25 -5 -63 -25 -63 -35 0 -47 61
-16 82 14 9 34 0 41 -19z"/>
<path d="M8510 5548 c0 -70 18 -78 22 -10 3 40 6 47 26 50 20 3 22 0 22 -47 0
-28 5 -51 10 -51 6 0 10 19 10 43 0 46 14 69 36 60 9 -3 14 -22 14 -54 0 -27
5 -49 10 -49 13 0 13 76 0 101 -12 21 -40 25 -58 7 -9 -9 -12 -9 -12 -1 0 7
-16 11 -40 10 l-40 -1 0 -58z"/>
<path d="M8820 5550 c0 -33 4 -60 10 -60 6 0 10 27 10 60 0 33 -4 60 -10 60
-6 0 -10 -27 -10 -60z"/>
<path d="M8870 5549 c0 -70 18 -80 22 -11 3 40 6 47 26 50 20 3 22 0 22 -47 0
-28 5 -51 10 -51 6 0 10 25 10 55 0 58 -4 62 -67 63 -21 1 -23 -4 -23 -59z"/>
<path d="M9002 5598 c-17 -17 -15 -74 4 -92 19 -20 44 -20 70 -1 18 13 16 14
-21 12 -30 -2 -40 2 -43 16 -3 14 4 17 37 17 42 0 48 8 31 41 -12 22 -59 26
-78 7z m56 -10 c19 -19 14 -28 -18 -28 -16 0 -30 4 -30 8 0 9 21 32 30 32 3 0
11 -5 18 -12z"/>
<path d="M9179 5553 c21 -69 37 -78 46 -24 9 56 22 60 32 9 12 -60 29 -58 47
5 19 64 19 67 7 67 -5 0 -12 -17 -16 -37 -11 -58 -18 -62 -30 -14 -14 60 -30
61 -45 4 l-13 -48 -14 48 c-8 26 -18 47 -23 47 -4 0 0 -26 9 -57z"/>
<path d="M9340 5550 c0 -33 4 -60 10 -60 6 0 10 27 10 60 0 33 -4 60 -10 60
-6 0 -10 -27 -10 -60z"/>
<path d="M8480 5311 c0 -45 4 -81 9 -81 6 0 7 15 5 33 -6 38 15 73 40 64 11
-5 16 -19 16 -52 0 -25 5 -45 10 -45 12 0 13 80 1 99 -6 9 -20 12 -41 9 -29
-4 -31 -3 -27 19 2 13 0 26 -4 29 -5 3 -9 -31 -9 -75z"/>
<path d="M9290 5310 c0 -47 4 -80 10 -80 6 0 10 33 10 80 0 47 -4 80 -10 80
-6 0 -10 -33 -10 -80z"/>
<path d="M8414 5352 c-7 -18 -6 -76 2 -104 3 -10 15 -18 27 -18 20 1 20 2 5
11 -22 12 -25 86 -5 91 9 2 8 7 -4 20 -16 15 -18 15 -25 0z"/>
<path d="M9344 5357 c-5 -9 -7 -40 -4 -69 4 -43 9 -53 25 -55 11 -2 14 0 8 3
-8 3 -13 24 -13 50 0 28 4 44 13 44 8 0 9 3 1 8 -6 4 -13 14 -16 22 -4 12 -6
12 -14 -3z"/>
<path d="M8295 5329 c-11 -16 -8 -80 3 -91 17 -17 64 -12 79 8 16 21 17 48 3
75 -12 21 -74 27 -85 8z m65 -13 c26 -32 -13 -97 -41 -69 -16 16 -14 63 2 74
19 12 25 11 39 -5z"/>
<path d="M8600 5314 c-20 -52 14 -99 62 -86 32 8 29 20 -4 18 -23 -1 -33 4
-36 17 -3 14 4 17 37 17 46 0 45 -1 31 34 -8 21 -16 26 -45 26 -29 0 -37 -5
-45 -26z m70 1 c11 -13 8 -15 -19 -15 -30 0 -39 9 -24 23 11 11 30 8 43 -8z"/>
<path d="M8720 5283 c0 -29 5 -53 10 -53 6 0 10 16 10 35 0 22 7 41 21 54 l21
20 -31 -1 c-31 -1 -31 -1 -31 -55z"/>
<path d="M8860 5284 c0 -30 5 -54 10 -54 6 0 10 19 10 41 0 28 6 46 17 54 15
11 14 13 -10 13 -26 0 -27 -3 -27 -54z"/>
<path d="M8942 5328 c-7 -7 -12 -29 -12 -50 0 -31 5 -40 22 -47 23 -8 55 -4
63 9 3 4 -10 7 -27 6 -23 -1 -33 4 -36 17 -3 14 4 17 37 17 42 0 48 8 31 41
-12 22 -59 26 -78 7z m58 -13 c11 -13 8 -15 -19 -15 -30 0 -39 9 -24 23 11 11
30 8 43 -8z"/>
<path d="M9056 5324 c-8 -21 8 -40 39 -48 14 -4 25 -14 25 -22 0 -13 -7 -15
-37 -11 -26 5 -33 3 -25 -5 14 -14 60 -14 74 0 15 15 2 41 -26 52 -13 5 -27
14 -31 19 -10 17 23 25 40 11 12 -10 15 -9 15 4 0 22 -65 22 -74 0z"/>
<path d="M9162 5290 c6 -57 8 -61 34 -60 11 0 29 1 42 1 20 0 22 5 22 55 0 63
-17 73 -22 13 -2 -27 -9 -46 -21 -53 -23 -15 -37 6 -37 57 0 21 -5 37 -11 37
-8 0 -10 -17 -7 -50z"/>
<path d="M9407 5333 c-16 -15 -6 -43 18 -49 13 -3 29 -12 36 -20 16 -19 -17
-31 -42 -15 -15 9 -19 8 -19 -3 0 -7 9 -16 20 -19 60 -16 88 44 30 64 -41 15
-41 44 0 35 19 -3 29 -2 25 4 -7 11 -58 14 -68 3z"/>
<path d="M3310 5530 c0 -5 5 -10 10 -10 6 0 10 5 10 10 0 6 -4 10 -10 10 -5 0
-10 -4 -10 -10z"/>
<path d="M2997 5494 c-10 -13 -13 -24 -8 -24 6 0 11 -26 13 -57 3 -53 5 -58
27 -61 23 -4 23 -3 8 13 -22 22 -24 105 -2 105 8 0 15 5 15 10 0 6 -6 10 -14
10 -8 0 -16 6 -18 14 -2 10 -8 7 -21 -10z"/>
<path d="M2575 5469 c21 -67 44 -114 57 -117 15 -3 58 91 58 126 0 28 -19 0
-38 -58 l-19 -55 -20 60 c-10 32 -25 61 -32 63 -10 3 -11 -2 -6 -19z"/>
<path d="M2730 5470 c-41 -41 -12 -122 43 -122 15 0 34 5 42 12 21 17 12 24
-14 10 -25 -13 -61 2 -61 25 0 11 13 15 49 15 l50 0 -10 32 c-5 17 -14 35 -21
40 -23 14 -57 9 -78 -12z m64 -6 c30 -12 18 -34 -19 -34 -22 0 -35 5 -35 13 0
26 21 34 54 21z"/>
<path d="M2881 5469 c-19 -18 -22 -29 -18 -62 3 -22 11 -44 19 -48 21 -14 65
-10 78 6 19 23 3 31 -19 11 -11 -10 -25 -15 -31 -11 -17 10 -29 50 -23 74 6
23 45 40 51 22 4 -11 32 -16 32 -5 0 11 -34 33 -51 34 -8 0 -26 -10 -38 -21z"/>
<path d="M3087 5472 c-20 -22 -22 -81 -3 -107 17 -24 75 -23 93 1 19 27 16 88
-5 107 -24 22 -65 21 -85 -1z m71 -14 c24 -24 7 -98 -23 -98 -22 0 -45 29 -45
59 0 30 16 51 40 51 9 0 21 -5 28 -12z"/>
<path d="M3220 5420 c0 -56 3 -70 15 -70 11 0 15 13 15 54 0 46 3 56 20 61 11
3 20 11 20 16 0 12 -7 11 -31 -1 -13 -7 -19 -7 -19 0 0 5 -4 10 -10 10 -6 0
-10 -30 -10 -70z"/>
<path d="M3310 5420 c0 -40 4 -70 10 -70 6 0 10 30 10 70 0 40 -4 70 -10 70
-6 0 -10 -30 -10 -70z"/>
<path d="M3360 5480 c0 -5 18 -10 41 -10 l41 0 -41 -51 c-23 -29 -41 -56 -41
-60 0 -5 26 -8 58 -7 49 1 51 2 15 5 -24 2 -43 7 -43 10 0 3 18 28 40 55 22
28 40 55 40 59 0 5 -25 9 -55 9 -30 0 -55 -4 -55 -10z"/>
<path d="M3517 5472 c-22 -24 -22 -95 -2 -112 28 -23 115 -7 92 17 -4 4 -13 1
-19 -5 -16 -16 -34 -15 -52 4 -26 26 -18 34 34 34 43 0 50 3 50 20 0 27 -35
60 -63 60 -13 0 -31 -8 -40 -18z m71 -24 c3 -15 -4 -18 -32 -18 -38 0 -44 8
-24 28 17 17 52 11 56 -10z"/>
<path d="M8091 3784 c-21 -26 -21 -35 -21 -584 0 -549 0 -558 21 -584 l20 -26
774 0 774 0 20 26 c21 26 21 35 21 584 0 549 0 558 -21 584 l-20 26 -774 0
-774 0 -20 -26z m1557 -10 l22 -15 0 -559 0 -559 -22 -15 c-20 -14 -109 -16
-763 -16 -654 0 -743 2 -763 16 l-22 15 0 559 0 559 22 15 c20 14 109 16 763
16 654 0 743 -2 763 -16z"/>
<path d="M8252 3383 c3 -60 6 -69 29 -82 40 -22 76 -8 89 37 13 42 10 107 -5
107 -5 0 -11 -28 -13 -62 -3 -57 -5 -63 -28 -69 -39 -10 -54 11 -54 77 0 34
-4 59 -10 59 -7 0 -10 -25 -8 -67z"/>
<path d="M8530 3370 c0 -47 4 -80 10 -80 6 0 10 33 10 80 0 47 -4 80 -10 80
-6 0 -10 -33 -10 -80z"/>
<path d="M8900 3426 c0 -19 -4 -22 -23 -19 -45 9 -73 -49 -47 -98 12 -21 40
-25 58 -7 9 9 12 9 12 0 0 -7 5 -12 10 -12 6 0 10 33 10 80 0 47 -4 80 -10 80
-5 0 -10 -11 -10 -24z m-5 -76 c0 -31 -3 -35 -25 -35 -19 0 -26 6 -28 23 -5
36 5 54 30 50 19 -2 23 -9 23 -38z"/>
<path d="M9440 3370 c0 -47 4 -80 10 -80 6 0 10 33 10 80 0 47 -4 80 -10 80
-6 0 -10 -33 -10 -80z"/>
<path d="M9501 3428 c0 -10 -5 -18 -9 -18 -12 0 2 -98 15 -111 6 -6 17 -8 23
-4 9 6 8 10 -4 17 -19 11 -22 68 -4 86 8 8 9 12 1 12 -6 0 -14 8 -16 18 -4 16
-5 16 -6 0z"/>
<path d="M8410 3329 c0 -46 4 -79 10 -79 6 0 10 10 10 23 0 18 5 23 27 22 35
0 56 38 44 81 -7 26 -12 29 -49 30 l-42 2 0 -79z m73 40 c9 -34 -4 -60 -27
-57 -15 2 -22 11 -24 31 -6 50 39 73 51 26z"/>
<path d="M8590 3394 c-8 -8 -13 -28 -13 -44 0 -60 58 -82 89 -35 17 27 12 73
-9 87 -20 13 -54 9 -67 -8z m65 -25 c9 -29 -4 -59 -25 -59 -36 0 -48 61 -17
82 15 9 35 -1 42 -23z"/>
<path d="M8715 3399 c-10 -15 3 -25 16 -12 14 14 39 6 39 -12 0 -8 -14 -15
-32 -17 -27 -2 -34 -8 -36 -30 -4 -31 25 -46 56 -29 13 7 22 7 30 -1 7 -7 15
-8 19 -3 5 4 2 10 -4 12 -7 3 -13 21 -13 42 0 20 -5 42 -12 49 -15 15 -55 16
-63 1z m53 -66 c-2 -10 -13 -19 -26 -21 -24 -4 -25 -2 -16 22 9 23 46 21 42
-1z"/>
<path d="M9010 3348 c0 -32 4 -58 10 -58 6 0 10 18 10 40 0 27 6 45 21 59 l21
20 -31 -1 -31 -1 0 -59z"/>
<path d="M9090 3391 c-34 -65 20 -127 75 -87 17 12 15 14 -20 12 -30 -1 -40 3
-43 17 -3 14 4 17 37 17 33 0 41 4 41 18 0 42 -70 60 -90 23z m54 3 c28 -11
18 -34 -14 -34 -32 0 -37 9 -18 28 14 14 12 14 32 6z"/>
<path d="M9217 3403 c-17 -17 -5 -45 23 -54 31 -11 40 -34 18 -42 -7 -2 -21 0
-31 5 -10 5 -21 7 -24 5 -10 -11 40 -28 63 -23 37 10 33 51 -6 65 -16 5 -30
14 -30 20 0 17 20 23 36 10 16 -13 30 -6 19 10 -7 12 -58 15 -68 4z"/>
<path d="M9320 3361 c0 -55 11 -68 58 -68 l32 0 0 59 c0 69 -18 78 -22 11 -3
-41 -6 -48 -25 -51 -21 -3 -23 0 -23 47 0 28 -4 51 -10 51 -5 0 -10 -22 -10
-49z"/>
<path d="M8478 3163 c-14 -31 -12 -133 3 -133 5 0 9 23 9 50 0 40 3 50 17 50
15 0 14 2 -3 14 -18 14 -18 15 -2 21 10 4 15 11 12 16 -10 16 -23 9 -36 -18z"/>
<path d="M8530 3180 c0 -5 5 -10 10 -10 6 0 10 5 10 10 0 6 -4 10 -10 10 -5 0
-10 -4 -10 -10z"/>
<path d="M8580 3110 c0 -47 4 -80 10 -80 6 0 10 33 10 80 0 47 -4 80 -10 80
-6 0 -10 -33 -10 -80z"/>
<path d="M9076 3164 c-9 -8 -16 -19 -16 -23 0 -13 35 -41 51 -41 26 0 51 -24
43 -43 -7 -20 -54 -23 -72 -5 -14 14 -24 7 -14 -9 14 -22 67 -25 92 -5 31 25
20 57 -25 72 -48 16 -62 36 -35 50 17 9 26 8 46 -5 20 -13 24 -13 24 -1 0 28
-69 36 -94 10z"/>
<path d="M9224 3166 c-11 -8 -15 -18 -10 -23 5 -4 11 -2 13 5 3 6 16 12 29 12
30 0 32 -25 4 -42 -25 -16 -26 -28 -1 -28 23 0 34 -23 18 -39 -15 -15 -27 -14
-49 6 -21 19 -37 10 -19 -11 28 -34 91 -22 91 17 0 13 -5 28 -11 34 -8 8 -8
13 0 17 18 11 13 44 -8 56 -26 13 -33 13 -57 -4z"/>
<path d="M8814 3152 c-7 -18 -6 -76 2 -104 3 -10 15 -18 27 -18 20 1 20 2 5
11 -22 12 -25 86 -5 91 9 2 8 7 -4 20 -16 15 -18 15 -25 0z"/>
<path d="M8530 3085 c0 -30 5 -55 10 -55 6 0 10 25 10 55 0 30 -4 55 -10 55
-5 0 -10 -25 -10 -55z"/>
<path d="M8631 3121 c-15 -27 -14 -53 2 -75 15 -21 62 -25 80 -7 9 9 4 10 -20
5 -25 -5 -33 -2 -42 15 -11 20 -9 21 33 21 43 0 44 1 37 28 -6 22 -14 28 -44
30 -27 2 -38 -1 -46 -17z m67 -8 c2 -9 -7 -13 -28 -13 -28 0 -31 2 -20 15 15
18 41 16 48 -2z"/>
<path d="M8882 3128 c-21 -21 -15 -76 12 -93 40 -27 76 -3 76 51 0 37 -16 54
-50 54 -14 0 -31 -5 -38 -12z m52 -4 c10 -4 16 -18 16 -39 0 -38 -11 -49 -40
-40 -23 7 -28 53 -8 73 14 14 12 14 32 6z"/>
<path d="M8010 1590 c-20 -20 -20 -33 -20 -590 0 -557 0 -570 20 -590 20 -20
33 -20 790 -20 757 0 770 0 790 20 20 20 20 33 20 590 0 557 0 570 -20 590
-20 20 -33 20 -790 20 -757 0 -770 0 -790 -20z m1560 -20 c20 -20 20 -33 20
-570 0 -537 0 -550 -20 -570 -20 -20 -33 -20 -770 -20 -737 0 -750 0 -770 20
-20 20 -20 33 -20 570 0 537 0 550 20 570 20 20 33 20 770 20 737 0 750 0 770
-20z"/>
<path d="M8557 1094 c-4 -4 -7 -40 -7 -81 l0 -73 29 0 c36 0 83 17 93 33 14
23 8 83 -9 99 -20 18 -95 33 -106 22z m81 -30 c26 -18 30 -65 6 -88 -8 -9 -29
-16 -45 -16 -29 0 -29 0 -29 60 0 56 2 60 23 60 12 0 33 -7 45 -16z"/>
<path d="M8720 1044 c-8 -8 -13 -28 -13 -44 0 -37 19 -60 49 -60 26 0 54 34
54 67 0 45 -62 72 -90 37z m65 -25 c9 -29 -4 -59 -25 -59 -36 0 -48 61 -17 82
15 9 35 -1 42 -23z"/>
<path d="M8830 998 c0 -32 4 -58 10 -58 6 0 10 18 10 39 0 47 24 78 46 60 8
-7 14 -30 14 -55 0 -24 5 -44 10 -44 13 0 13 76 0 100 -8 14 -20 19 -50 17
l-40 -1 0 -58z"/>
<path d="M8966 1044 c-20 -20 -20 -53 0 -82 18 -26 42 -28 70 -7 18 14 17 14
-15 8 -22 -4 -36 -2 -41 8 -13 20 -2 29 36 29 26 0 34 4 34 18 0 40 -54 57
-84 26z m48 0 c28 -11 18 -34 -14 -34 -32 0 -37 9 -18 28 14 14 12 14 32 6z"/>
</g>
</svg>
