<?xml version="1.0" standalone="no"?>
<!DOCTYPE svg PUBLIC "-//W3C//DTD SVG 20010904//EN"
 "http://www.w3.org/TR/2001/REC-SVG-20010904/DTD/svg10.dtd">
<svg version="1.0" xmlns="http://www.w3.org/2000/svg"
 width="1130.000000pt" height="1180.000000pt" viewBox="0 0 1130.000000 1180.000000"
 preserveAspectRatio="xMidYMid meet">

<g transform="translate(0.000000,1180.000000) scale(0.100000,-0.100000)"
fill="#000000" stroke="none">
<path d="M1310 11390 c-19 -19 -20 -33 -20 -510 l0 -490 48 -34 c68 -50 186
-111 267 -138 58 -19 91 -23 190 -23 l121 0 179 87 c218 106 253 116 371 99
135 -19 271 -79 422 -187 l22 -16 0 596 c0 583 0 596 -20 616 -20 20 -33 20
-790 20 -757 0 -770 0 -790 -20z m1560 -20 c20 -20 20 -33 20 -580 0 -308 -2
-560 -4 -560 -2 0 -28 16 -57 36 -72 48 -149 86 -234 115 -58 20 -90 24 -190
24 l-121 0 -179 -88 c-220 -107 -259 -116 -386 -95 -114 18 -220 61 -325 131
l-79 52 -3 472 c-2 462 -2 473 18 493 20 20 32 20 770 20 737 0 750 0 770 -20z"/>
<path d="M1430 11010 c0 -5 11 -10 25 -10 24 0 25 -2 25 -70 0 -40 4 -70 10
-70 6 0 10 30 10 70 0 68 1 70 25 70 14 0 25 5 25 10 0 6 -27 10 -60 10 -33 0
-60 -4 -60 -10z"/>
<path d="M1780 10940 c0 -47 4 -80 10 -80 6 0 10 11 10 25 0 32 10 32 40 0 31
-33 38 -24 10 15 l-22 31 23 25 c31 33 12 31 -23 -3 l-28 -27 0 47 c0 26 -4
47 -10 47 -6 0 -10 -33 -10 -80z"/>
<path d="M1902 10938 l1 -83 7 65 c4 48 8 60 14 45 5 -11 17 -39 27 -62 10
-24 20 -43 22 -43 2 0 15 28 28 63 l24 62 6 -65 6 -65 1 83 c2 99 -11 105 -42
19 -11 -31 -23 -57 -26 -57 -3 0 -15 26 -26 57 -31 86 -44 80 -42 -19z"/>
<path d="M1556 10965 c-6 -18 5 -20 22 -3 8 8 15 8 27 -2 23 -19 18 -30 -14
-30 -33 0 -54 -20 -45 -43 8 -21 32 -29 54 -17 13 7 21 7 25 0 23 -36 26 49 3
93 -11 21 -64 23 -72 2z m64 -54 c0 -16 -30 -33 -46 -27 -13 5 -14 9 -4 21 13
16 50 21 50 6z"/>
<path d="M1677 10974 c-18 -18 -5 -45 29 -59 42 -17 37 -40 -7 -31 -30 6 -40
-8 -13 -18 25 -10 42 -7 58 9 20 21 11 41 -25 54 -16 5 -29 15 -29 21 0 18 29
23 47 9 14 -12 16 -12 11 1 -5 16 -59 26 -71 14z"/>
<path d="M2086 10965 c-20 -21 -21 -54 0 -83 18 -25 42 -28 70 -7 17 13 16 14
-18 8 -25 -4 -38 -2 -38 6 0 6 -1 14 -2 19 -2 4 16 9 39 12 42 5 42 6 30 30
-15 30 -58 38 -81 15z m48 -1 c25 -9 19 -34 -7 -34 -30 0 -40 10 -26 27 13 15
12 15 33 7z"/>
<path d="M2207 10974 c-18 -18 -5 -45 29 -59 42 -17 37 -40 -7 -31 -30 6 -40
-8 -13 -18 25 -10 42 -7 58 9 20 21 11 41 -25 54 -16 5 -29 15 -29 21 0 18 29
23 47 9 14 -12 16 -12 11 1 -5 16 -59 26 -71 14z"/>
<path d="M2315 10970 c-12 -19 4 -45 35 -57 43 -16 39 -37 -5 -30 -35 6 -48
-6 -19 -17 25 -10 42 -7 58 10 24 23 20 33 -19 50 -19 8 -35 19 -35 24 0 18
29 23 47 9 14 -12 16 -12 11 1 -5 18 -63 26 -73 10z"/>
<path d="M2435 10969 c-11 -16 3 -23 19 -10 17 14 36 7 36 -14 0 -8 -13 -15
-32 -17 -25 -2 -34 -8 -36 -24 -4 -31 23 -50 52 -36 17 7 27 7 35 -1 6 -6 14
-8 18 -4 4 4 1 13 -5 19 -7 7 -12 26 -12 43 0 17 -5 36 -12 43 -15 15 -55 16
-63 1z m53 -66 c-2 -10 -13 -19 -26 -21 -24 -4 -25 -2 -16 22 9 23 46 21 42
-1z"/>
<path d="M2550 10961 c-15 -29 -12 -67 6 -85 18 -19 20 -19 45 -6 16 9 19 7
19 -9 0 -22 -29 -36 -44 -21 -16 16 -30 12 -16 -5 18 -21 57 -19 70 4 5 11 10
46 10 79 l0 59 -40 1 c-30 1 -42 -3 -50 -17z m70 -35 c0 -28 -24 -51 -45 -42
-18 6 -20 57 -3 74 17 17 48 -4 48 -32z"/>
<path d="M2680 10965 c-18 -22 -15 -77 6 -92 23 -17 36 -16 60 1 18 13 17 14
-16 13 -25 -2 -35 2 -38 16 -3 14 4 17 38 17 38 0 41 2 34 23 -4 12 -12 25
-18 29 -19 13 -53 9 -66 -7z m59 -8 c6 -8 8 -17 4 -20 -12 -12 -53 -7 -53 6 0
28 30 37 49 14z"/>
<path d="M4100 9800 c0 -6 10 -14 23 -19 12 -5 31 -19 42 -31 20 -22 20 -40
25 -2310 l5 -2288 24 -26 24 -26 -24 -26 -24 -26 -5 -2288 c-5 -2270 -5 -2288
-25 -2310 -11 -12 -30 -26 -42 -31 -13 -5 -23 -13 -23 -19 0 -20 40 -9 72 19
l33 29 5 2290 5 2290 24 26 c15 16 41 29 63 32 49 8 49 20 0 28 -22 3 -48 16
-63 32 l-24 26 -5 2290 -5 2290 -33 29 c-32 28 -72 39 -72 19z"/>
<path d="M910 9490 c-20 -20 -20 -33 -20 -590 0 -557 0 -570 20 -590 20 -20
33 -20 1190 -20 1157 0 1170 0 1190 20 20 20 20 33 20 590 0 557 0 570 -20
590 -20 20 -33 20 -1190 20 -1157 0 -1170 0 -1190 -20z m2360 -20 c20 -20 20
-33 20 -570 0 -537 0 -550 -20 -570 -20 -20 -33 -20 -1170 -20 -1137 0 -1150
0 -1170 20 -20 20 -20 33 -20 570 0 537 0 550 20 570 20 20 33 20 1170 20
1137 0 1150 0 1170 -20z"/>
<path d="M1640 8977 c0 -9 -5 -17 -12 -17 -9 0 -9 -3 0 -12 7 -7 12 -31 12
-55 0 -42 20 -67 38 -48 4 4 1 10 -5 12 -15 5 -18 89 -4 95 4 2 0 12 -10 22
-17 17 -19 18 -19 3z"/>
<path d="M2791 8978 c0 -10 -5 -18 -9 -18 -12 0 2 -98 15 -111 6 -6 17 -8 23
-4 9 6 8 10 -4 17 -19 11 -22 68 -4 86 8 8 9 12 1 12 -6 0 -14 8 -16 18 -4 16
-5 16 -6 0z"/>
<path d="M2483 8965 c-8 -9 -9 -16 -3 -20 6 -3 10 -26 10 -51 0 -31 5 -46 15
-51 9 -3 19 -2 23 2 4 4 1 10 -5 12 -16 6 -18 93 -2 93 6 0 4 7 -5 15 -18 18
-18 18 -33 0z"/>
<path d="M1390 8941 c-15 -29 -12 -67 6 -85 18 -19 20 -19 45 -6 16 9 19 7 19
-9 0 -22 -29 -36 -44 -21 -16 16 -30 12 -16 -5 18 -21 57 -19 70 4 5 11 10 46
10 79 l0 59 -40 1 c-30 1 -42 -3 -50 -17z m65 -41 c0 -29 -4 -36 -22 -38 -17
-3 -24 3 -29 22 -9 37 2 58 28 54 19 -2 23 -9 23 -38z"/>
<path d="M1522 8948 c-7 -7 -12 -29 -12 -50 0 -43 26 -64 66 -54 35 9 29 24
-8 22 -23 -1 -33 4 -36 17 -3 14 4 17 37 17 29 0 41 4 41 14 0 37 -61 61 -88
34z m56 -10 c19 -19 14 -28 -18 -28 -41 0 -40 33 1 39 3 1 10 -4 17 -11z"/>
<path d="M1767 8953 c-17 -17 -5 -45 23 -54 31 -11 40 -34 18 -42 -7 -2 -21 0
-31 5 -10 5 -21 7 -24 5 -10 -11 40 -28 63 -23 34 9 34 53 -1 62 -34 8 -50 30
-29 38 9 3 23 1 31 -5 7 -7 17 -9 20 -5 4 4 1 11 -7 16 -17 11 -54 13 -63 3z"/>
<path d="M1883 8952 c-21 -14 -26 -60 -9 -87 35 -53 107 -11 91 52 -7 31 -21
43 -50 43 -11 0 -25 -4 -32 -8z m61 -29 c12 -29 -5 -63 -30 -63 -24 0 -29 12
-25 55 3 35 43 41 55 8z"/>
<path d="M1990 8916 c0 -27 6 -51 16 -60 18 -18 23 -19 44 -6 9 6 17 5 22 -3
14 -23 20 4 13 60 -5 32 -10 51 -11 43 -1 -8 -5 -32 -9 -52 -5 -32 -10 -38
-30 -38 -23 0 -25 4 -25 50 0 28 -4 50 -10 50 -5 0 -10 -20 -10 -44z"/>
<path d="M2120 8898 c0 -32 4 -58 10 -58 6 0 10 23 10 50 0 38 4 50 15 50 8 0
15 4 15 9 0 5 -11 8 -25 7 -24 -1 -25 -4 -25 -58z"/>
<path d="M2200 8944 c-8 -8 -13 -28 -13 -44 0 -54 43 -78 78 -44 21 22 13 29
-15 12 -18 -11 -23 -10 -36 6 -24 33 5 88 33 64 8 -6 17 -8 20 -4 9 9 -16 26
-38 26 -9 0 -22 -7 -29 -16z"/>
<path d="M2310 8945 c-18 -22 -15 -77 6 -92 23 -17 49 -16 63 1 10 12 6 14
-21 13 -23 -2 -33 3 -36 16 -3 14 4 17 38 17 38 0 41 2 34 23 -4 12 -12 25
-18 29 -19 13 -53 9 -66 -7z m58 -7 c19 -19 14 -28 -18 -28 -41 0 -40 33 1 39
3 1 10 -4 17 -11z"/>
<path d="M2556 8944 c-20 -20 -20 -53 0 -82 18 -26 42 -28 70 -7 18 14 17 14
-15 8 -22 -4 -36 -2 -41 8 -13 20 -2 29 36 29 26 0 34 4 34 18 0 40 -54 57
-84 26z m48 0 c28 -11 18 -34 -14 -34 -32 0 -37 9 -18 28 14 14 12 14 32 6z"/>
<path d="M2679 8932 c20 -28 20 -28 -1 -60 -23 -36 -9 -44 16 -9 l16 22 16
-22 c25 -35 39 -27 16 9 -21 32 -21 32 -1 60 11 15 16 28 10 28 -5 0 -17 -10
-25 -22 l-16 -22 -16 22 c-8 12 -20 22 -25 22 -6 0 -1 -13 10 -28z"/>
<path d="M410 7590 c-20 -20 -20 -33 -20 -590 0 -557 0 -570 20 -590 20 -20
33 -20 1690 -20 1657 0 1670 0 1690 20 20 20 20 33 20 590 0 557 0 570 -20
590 -20 20 -33 20 -1690 20 -1657 0 -1670 0 -1690 -20z m3360 -20 c20 -20 20
-33 20 -570 0 -537 0 -550 -20 -570 -20 -20 -33 -20 -1670 -20 -1637 0 -1650
0 -1670 20 -20 20 -20 33 -20 570 0 537 0 550 20 570 20 20 33 20 1670 20
1637 0 1650 0 1670 -20z"/>
<path d="M1370 7076 c0 -19 -4 -22 -23 -19 -45 9 -73 -49 -47 -97 8 -14 20
-19 50 -17 l40 1 0 78 c0 45 -4 78 -10 78 -5 0 -10 -11 -10 -24z m0 -69 c0
-32 -15 -50 -36 -45 -23 4 -31 52 -14 73 17 20 50 1 50 -28z"/>
<path d="M1420 7090 c0 -5 5 -10 10 -10 6 0 10 5 10 10 0 6 -4 10 -10 10 -5 0
-10 -4 -10 -10z"/>
<path d="M2295 7090 c3 -5 8 -10 11 -10 2 0 4 5 4 10 0 6 -5 10 -11 10 -5 0
-7 -4 -4 -10z"/>
<path d="M3080 7020 c0 -47 4 -80 10 -80 6 0 10 33 10 80 0 47 -4 80 -10 80
-6 0 -10 -33 -10 -80z"/>
<path d="M1181 7078 c0 -10 -5 -18 -9 -18 -12 0 2 -98 15 -111 6 -6 17 -8 23
-4 9 6 8 10 -4 17 -19 11 -22 68 -4 86 8 8 9 12 1 12 -6 0 -14 8 -16 18 -4 16
-5 16 -6 0z"/>
<path d="M3141 7078 c0 -10 -5 -18 -9 -18 -12 0 2 -98 15 -111 6 -6 17 -8 23
-4 9 6 8 10 -4 17 -22 13 -21 74 2 87 15 9 15 10 0 11 -9 0 -19 8 -21 18 -4
16 -5 16 -6 0z"/>
<path d="M930 7040 c-15 -28 -12 -66 6 -84 18 -19 20 -19 45 -6 24 13 27 -11
4 -30 -12 -10 -18 -10 -30 0 -17 14 -31 8 -20 -9 3 -6 19 -11 35 -11 38 0 50
23 50 97 l0 59 -40 1 c-30 2 -42 -3 -50 -17z m66 -27 c8 -29 -16 -59 -40 -50
-19 7 -22 57 -5 74 16 16 38 5 45 -24z"/>
<path d="M1063 7052 c-21 -14 -26 -60 -9 -87 19 -28 43 -32 72 -10 17 13 16
14 -18 8 -34 -5 -38 -3 -38 16 0 18 6 21 40 21 44 0 47 5 24 38 -15 22 -48 29
-71 14z m61 -28 c4 -10 -3 -14 -29 -14 -39 0 -41 2 -20 24 17 17 40 12 49 -10z"/>
<path d="M1420 7000 c0 -33 4 -60 10 -60 6 0 10 27 10 60 0 33 -4 60 -10 60
-6 0 -10 -27 -10 -60z"/>
<path d="M1477 7053 c-17 -17 -5 -45 23 -54 31 -11 40 -34 18 -42 -7 -2 -21 0
-31 5 -10 5 -21 7 -24 5 -10 -11 40 -28 63 -23 34 9 34 53 -1 62 -34 8 -50 30
-29 38 9 3 23 1 31 -5 7 -7 17 -9 20 -5 4 4 1 11 -7 16 -17 11 -54 13 -63 3z"/>
<path d="M1584 7035 c-16 -24 -13 -56 8 -82 14 -17 53 -16 68 2 10 12 6 13
-24 8 -32 -5 -36 -3 -36 16 0 18 6 21 40 21 44 0 47 5 24 38 -20 30 -59 29
-80 -3z m66 -5 c10 -18 8 -20 -25 -20 -40 0 -41 2 -19 24 21 21 31 20 44 -4z"/>
<path d="M1710 7045 c-10 -12 -10 -15 3 -15 9 0 18 4 22 10 8 13 35 1 35 -15
0 -8 -14 -15 -32 -17 -27 -2 -34 -8 -36 -30 -4 -31 25 -46 56 -29 13 7 22 7
30 -1 7 -7 15 -8 19 -3 5 4 2 10 -4 12 -7 3 -13 21 -13 42 0 20 -5 42 -12 49
-17 17 -53 15 -68 -3z m58 -62 c-4 -22 -48 -31 -48 -10 0 19 10 27 32 27 13 0
18 -6 16 -17z"/>
<path d="M1829 7044 c-14 -17 -6 -26 47 -61 16 -10 17 -13 5 -22 -10 -6 -21
-6 -32 0 -26 13 -33 11 -19 -6 28 -34 96 -3 73 33 -5 10 -19 18 -31 20 -11 2
-23 10 -26 18 -7 19 21 31 37 15 17 -17 31 -13 17 4 -16 20 -54 19 -71 -1z"/>
<path d="M1946 7044 c-20 -20 -20 -53 0 -82 18 -26 42 -28 70 -7 18 14 17 14
-15 8 -22 -4 -36 -2 -41 8 -13 20 -2 29 36 29 26 0 34 4 34 18 0 40 -54 57
-84 26z m48 0 c28 -11 18 -34 -14 -34 -32 0 -37 9 -18 28 14 14 12 14 32 6z"/>
<path d="M2191 7046 c-13 -16 -5 -46 13 -46 7 0 21 -7 32 -15 16 -12 17 -16 5
-24 -10 -6 -22 -6 -34 1 -24 13 -32 5 -12 -12 21 -17 68 -2 73 23 3 12 -7 22
-32 32 -20 9 -36 20 -36 25 0 16 30 24 43 11 17 -17 31 -13 17 4 -16 19 -54
19 -69 1z"/>
<path d="M2290 7000 c0 -33 4 -60 10 -60 6 0 10 27 10 60 0 33 -4 60 -10 60
-6 0 -10 -27 -10 -60z"/>
<path d="M2351 7047 c-6 -6 -11 -28 -11 -49 0 -44 27 -66 60 -48 16 8 20 8 20
-3 0 -8 -7 -20 -16 -28 -13 -10 -19 -10 -36 0 -16 10 -19 10 -16 -1 3 -7 19
-14 36 -16 27 -3 34 1 42 23 6 14 10 50 10 79 l0 52 -39 1 c-21 1 -43 -3 -50
-10z m63 -29 c7 -28 -11 -60 -32 -56 -20 4 -28 53 -12 73 15 18 37 9 44 -17z"/>
<path d="M2470 6998 c0 -32 4 -58 10 -58 6 0 10 19 10 43 0 46 14 69 36 60 9
-3 14 -22 14 -54 0 -27 5 -49 10 -49 15 0 12 96 -3 108 -7 6 -27 10 -45 10
l-32 -1 0 -59z"/>
<path d="M2650 6998 c0 -32 4 -58 10 -58 6 0 10 15 10 34 0 44 9 66 26 66 8 0
14 4 14 9 0 5 -13 9 -30 9 -30 -1 -30 -1 -30 -60z"/>
<path d="M2730 7041 c-34 -65 21 -128 76 -86 18 14 17 14 -15 8 -23 -4 -36 -2
-42 8 -15 24 -10 29 31 29 32 0 40 4 40 18 0 42 -70 60 -90 23z m54 3 c28 -11
18 -34 -14 -34 -32 0 -37 9 -18 28 14 14 12 14 32 6z"/>
<path d="M2857 7053 c-18 -18 -5 -44 31 -59 35 -14 36 -16 18 -29 -13 -10 -24
-11 -37 -5 -27 15 -37 11 -15 -5 25 -19 51 -19 70 0 20 21 11 41 -25 54 -16 5
-29 14 -29 20 0 17 20 23 36 10 16 -13 30 -6 19 10 -7 12 -58 15 -68 4z"/>
<path d="M2960 7011 c0 -55 9 -66 57 -66 l33 0 0 58 c0 69 -18 77 -22 10 -3
-41 -6 -48 -25 -51 -21 -3 -23 0 -23 47 0 28 -4 51 -10 51 -5 0 -10 -22 -10
-49z"/>
<path d="M3201 7046 c-13 -16 -5 -46 13 -46 7 0 21 -7 32 -15 16 -12 17 -16 5
-24 -10 -6 -22 -6 -34 1 -24 12 -32 5 -12 -12 18 -15 64 -5 72 15 7 20 -14 45
-38 45 -23 0 -34 19 -20 33 9 9 16 8 31 -1 27 -16 35 -15 20 3 -16 19 -54 19
-69 1z"/>
<path d="M2067 6903 c18 -2 50 -2 70 0 21 2 7 4 -32 4 -38 0 -55 -2 -38 -4z"/>
<path d="M5110 6590 c-20 -20 -20 -33 -20 -1490 0 -1457 0 -1470 20 -1490 20
-20 33 -20 1290 -20 1257 0 1270 0 1290 20 20 20 20 33 20 1490 0 1457 0 1470
-20 1490 -20 20 -33 20 -1290 20 -1257 0 -1270 0 -1290 -20z m2560 -20 c20
-20 20 -33 20 -1470 0 -1437 0 -1450 -20 -1470 -20 -20 -33 -20 -1270 -20
-1237 0 -1250 0 -1270 20 -20 20 -20 33 -20 1470 0 1437 0 1450 20 1470 20 20
33 20 1270 20 1237 0 1250 0 1270 -20z"/>
<path d="M5592 5194 c-26 -49 -60 -144 -51 -144 5 0 14 11 19 25 8 20 16 25
43 25 26 0 36 -6 45 -25 6 -14 16 -25 21 -25 10 0 -43 138 -59 154 -4 4 -12 0
-18 -10z m38 -71 c0 -7 -11 -13 -25 -13 -28 0 -30 8 -13 45 l12 26 13 -23 c7
-13 12 -29 13 -35z"/>
<path d="M7060 5130 c0 -47 4 -80 10 -80 6 0 10 33 10 80 0 47 -4 80 -10 80
-6 0 -10 -33 -10 -80z"/>
<path d="M7121 5188 c0 -10 -5 -18 -9 -18 -5 0 -6 -23 -2 -50 6 -50 23 -80 37
-67 4 4 1 13 -5 19 -16 16 -15 71 0 86 8 8 9 12 1 12 -6 0 -14 8 -16 18 -4 16
-5 16 -6 0z"/>
<path d="M6383 5175 c-8 -9 -9 -16 -3 -20 6 -3 10 -26 10 -51 0 -31 5 -46 15
-51 9 -3 19 -2 23 2 4 4 1 10 -5 12 -16 6 -18 93 -2 93 6 0 4 7 -5 15 -18 18
-18 18 -33 0z"/>
<path d="M5701 5157 c-6 -6 -11 -28 -11 -49 0 -45 27 -66 61 -48 18 10 20 9
17 -6 -5 -26 -36 -42 -48 -24 -5 8 -12 11 -15 8 -13 -13 7 -28 36 -28 36 0 49
27 49 104 l0 52 -39 1 c-21 1 -43 -3 -50 -10z m63 -29 c7 -28 -11 -60 -32 -56
-20 4 -28 53 -12 73 15 18 37 9 44 -17z"/>
<path d="M5820 5150 c-15 -28 -12 -66 6 -84 18 -19 20 -19 45 -6 16 9 19 7 19
-9 0 -22 -29 -36 -44 -21 -16 16 -30 12 -16 -5 18 -21 57 -19 70 4 5 11 10 46
10 78 l0 59 -40 1 c-30 2 -42 -3 -50 -17z m65 -40 c0 -28 -4 -36 -22 -38 -24
-4 -38 25 -28 59 5 14 14 19 28 17 18 -2 22 -10 22 -38z"/>
<path d="M5940 5110 c0 -71 16 -80 22 -12 5 51 1 72 -13 72 -5 0 -9 -27 -9
-60z"/>
<path d="M5970 5160 c0 -5 7 -10 15 -10 8 0 15 5 15 10 0 6 -7 10 -15 10 -8 0
-15 -4 -15 -10z"/>
<path d="M6020 5151 c-34 -65 20 -127 75 -87 17 12 15 14 -20 12 -30 -1 -40 3
-43 17 -3 14 4 17 37 17 33 0 41 4 41 18 0 42 -70 60 -90 23z m70 -22 c0 -5
-13 -9 -30 -9 -33 0 -39 14 -13 29 18 10 43 -2 43 -20z"/>
<path d="M6139 5149 c-14 -27 -3 -85 17 -93 8 -3 24 -1 35 4 16 9 19 7 19 -9
0 -22 -29 -36 -44 -21 -16 16 -30 12 -16 -5 15 -18 51 -20 68 -3 7 7 12 40 12
78 l0 67 -40 1 c-31 1 -42 -3 -51 -19z m66 -39 c0 -28 -4 -36 -22 -38 -24 -4
-38 25 -28 59 5 14 14 19 28 17 18 -2 22 -10 22 -38z"/>
<path d="M6269 5153 c-12 -15 -12 -16 6 -9 22 8 25 9 43 7 27 -2 11 -30 -20
-33 -27 -2 -34 -8 -36 -30 -4 -31 29 -48 53 -28 12 10 18 10 30 0 9 -7 19 -9
23 -5 4 4 1 10 -5 12 -7 3 -13 21 -13 42 0 20 -5 42 -12 49 -17 17 -53 15 -69
-5z m59 -60 c-4 -22 -48 -31 -48 -10 0 19 10 27 32 27 13 0 18 -6 16 -17z"/>
<path d="M6456 5154 c-22 -21 -20 -67 2 -87 23 -21 42 -21 68 -2 18 14 17 14
-15 8 -23 -4 -36 -2 -42 8 -15 24 -10 29 31 29 32 0 40 4 40 18 0 40 -54 57
-84 26z m64 -20 c0 -9 -11 -14 -30 -14 -33 0 -39 14 -13 28 21 12 43 5 43 -14z"/>
<path d="M6630 5108 c0 -32 4 -58 10 -58 6 0 10 15 10 34 0 44 9 66 26 66 8 0
14 4 14 9 0 5 -13 9 -30 9 -30 -1 -30 -1 -30 -60z"/>
<path d="M6710 5151 c-34 -65 21 -128 76 -86 21 16 8 20 -15 6 -19 -12 -51 4
-51 24 0 11 12 15 40 15 32 0 40 4 40 18 0 42 -70 60 -90 23z m70 -17 c0 -9
-11 -14 -30 -14 -33 0 -39 14 -13 28 21 12 43 5 43 -14z"/>
<path d="M6837 5163 c-18 -18 -5 -44 31 -59 35 -14 36 -16 18 -29 -14 -11 -24
-11 -38 -4 -11 6 -22 8 -25 6 -10 -11 40 -28 63 -23 37 10 33 51 -6 65 -16 5
-30 14 -30 20 0 17 20 23 36 10 8 -6 18 -9 21 -5 4 4 1 11 -7 16 -17 11 -54
13 -63 3z"/>
<path d="M6940 5121 c0 -55 11 -68 58 -68 l32 0 0 59 c0 69 -18 78 -22 11 -3
-41 -6 -48 -25 -51 -21 -3 -23 0 -23 47 0 28 -4 51 -10 51 -5 0 -10 -22 -10
-49z"/>
<path d="M7181 5156 c-13 -16 -5 -46 13 -46 7 0 21 -7 32 -15 16 -12 17 -16 5
-24 -10 -6 -22 -6 -34 1 -24 13 -32 5 -12 -12 21 -17 68 -2 73 23 3 12 -8 22
-33 33 -20 8 -34 20 -32 27 5 13 21 14 52 1 18 -7 18 -6 6 9 -16 20 -54 22
-70 3z"/>
<path d="M8510 5940 c-20 -20 -20 -33 -20 -840 0 -807 0 -820 20 -840 20 -20
33 -20 1190 -20 1157 0 1170 0 1190 20 20 20 20 33 20 840 0 807 0 820 -20
840 -20 20 -33 20 -1190 20 -1157 0 -1170 0 -1190 -20z m2360 -20 c20 -20 20
-33 20 -820 0 -787 0 -800 -20 -820 -20 -20 -33 -20 -1170 -20 -1137 0 -1150
0 -1170 20 -20 20 -20 33 -20 820 0 787 0 800 20 820 20 20 33 20 1170 20
1137 0 1150 0 1170 -20z"/>
<path d="M9090 5210 c0 -5 5 -10 10 -10 6 0 10 5 10 10 0 6 -4 10 -10 10 -5 0
-10 -4 -10 -10z"/>
<path d="M9880 5140 c0 -47 4 -80 10 -80 6 0 10 33 10 80 0 47 -4 80 -10 80
-6 0 -10 -33 -10 -80z"/>
<path d="M8804 5193 c26 -94 42 -133 52 -133 7 0 18 25 25 55 7 31 16 58 19
60 4 3 13 -22 20 -55 8 -37 18 -60 26 -60 8 0 22 29 34 69 23 78 23 81 11 81
-5 0 -15 -25 -22 -55 -7 -31 -15 -58 -19 -60 -4 -2 -14 23 -24 55 -9 33 -20
60 -26 60 -5 0 -17 -28 -26 -62 -19 -66 -23 -65 -44 20 -6 23 -15 42 -21 42
-6 0 -8 -8 -5 -17z"/>
<path d="M10360 5195 c-20 -24 -3 -54 35 -61 47 -9 66 -32 40 -50 -25 -18 -40
-18 -60 2 -20 20 -33 11 -15 -11 16 -20 74 -19 94 1 19 18 19 20 6 44 -5 10
-22 21 -37 25 -41 10 -56 25 -42 41 14 17 41 18 57 2 6 -6 15 -8 19 -4 4 4 1
11 -7 16 -23 15 -76 12 -90 -5z"/>
<path d="M10507 5203 c-4 -3 -7 -13 -7 -21 0 -13 3 -12 19 2 20 18 51 12 51
-11 0 -8 -9 -17 -20 -20 -11 -3 -20 -9 -20 -13 0 -4 9 -10 20 -13 24 -6 27
-42 4 -51 -10 -4 -25 1 -36 10 -22 21 -36 11 -18 -11 17 -21 69 -16 84 7 8 13
7 23 -2 39 -10 15 -10 24 -2 34 18 22 -5 55 -39 55 -15 0 -31 -3 -34 -7z"/>
<path d="M9143 5187 c-6 -7 -7 -37 -4 -67 5 -44 10 -55 26 -58 16 -3 18 -1 8
9 -17 17 -17 86 -1 91 9 3 8 9 -4 21 -12 13 -18 14 -25 4z"/>
<path d="M9812 5180 c-7 -11 -8 -20 -3 -20 6 0 11 -21 13 -47 2 -39 7 -49 23
-51 16 -3 18 -1 8 9 -17 17 -17 86 -1 91 9 3 8 9 -4 21 -21 21 -21 21 -36 -3z"/>
<path d="M10104 5185 c-10 -10 -10 -48 2 -102 2 -13 12 -23 21 -23 13 0 14 3
5 12 -16 16 -16 85 0 90 10 4 9 8 -2 20 -12 11 -18 12 -26 3z"/>
<path d="M9020 5118 c0 -32 4 -58 10 -58 6 0 10 20 10 45 0 31 5 47 15 51 23
9 18 19 -10 19 -24 0 -25 -3 -25 -57z"/>
<path d="M9090 5120 c0 -33 4 -60 10 -60 6 0 10 27 10 60 0 33 -4 60 -10 60
-6 0 -10 -27 -10 -60z"/>
<path d="M9216 5167 c-21 -15 -24 -70 -6 -92 14 -17 66 -20 75 -4 10 16 -3 23
-18 10 -17 -14 -47 -4 -47 15 0 10 12 14 40 14 46 0 53 17 20 50 -23 23 -39
25 -64 7z m62 -24 c2 -9 -7 -13 -27 -13 -30 0 -39 9 -24 24 11 10 46 3 51 -11z"/>
<path d="M9391 5123 c-1 -36 3 -63 9 -63 6 0 10 20 10 45 0 31 5 47 15 51 8 4
15 10 15 15 0 6 -8 5 -19 -1 -14 -7 -21 -6 -24 3 -3 6 -6 -16 -6 -50z"/>
<path d="M9479 5170 c-25 -15 -32 -58 -14 -86 16 -25 68 -34 80 -13 10 16 -3
23 -18 10 -17 -14 -47 -4 -47 14 0 9 14 15 37 17 44 4 52 19 24 47 -23 23 -37
25 -62 11z m55 -25 c4 -12 -3 -15 -31 -15 -30 0 -34 2 -23 15 7 8 20 15 30 15
10 0 20 -7 24 -15z"/>
<path d="M9598 5169 c-28 -16 -21 -39 17 -55 19 -8 35 -19 35 -24 0 -17 -27
-22 -50 -10 -18 10 -21 9 -18 -2 6 -18 62 -22 77 -5 16 20 5 41 -29 54 -40 15
-40 37 0 30 31 -7 42 6 14 17 -21 8 -26 7 -46 -5z"/>
<path d="M9690 5139 c0 -62 13 -78 60 -76 l40 1 0 53 c0 28 -4 55 -10 58 -6 4
-10 -10 -10 -34 0 -47 -24 -78 -46 -60 -8 7 -14 30 -14 55 0 24 -4 44 -10 44
-5 0 -10 -18 -10 -41z"/>
<path d="M9936 5165 c-20 -21 -12 -38 24 -52 34 -13 41 -43 11 -43 -11 0 -23
5 -26 10 -3 6 -11 10 -17 10 -6 0 -6 -6 2 -16 21 -24 74 -15 78 14 3 18 -4 26
-33 38 -43 17 -37 39 9 30 29 -5 30 -5 12 9 -25 19 -41 19 -60 0z"/>
<path d="M10178 5169 c-21 -12 -25 -78 -6 -97 19 -19 66 -15 78 7 33 63 -16
123 -72 90z m60 -45 c3 -34 -17 -58 -42 -48 -10 4 -16 18 -16 38 0 39 7 48 35
44 14 -2 21 -12 23 -34z"/>
<path d="M410 5690 c-20 -20 -20 -33 -20 -590 0 -557 0 -570 20 -590 20 -20
33 -20 1690 -20 1657 0 1670 0 1690 20 20 20 20 33 20 590 0 557 0 570 -20
590 -20 20 -33 20 -1690 20 -1657 0 -1670 0 -1690 -20z m3360 -20 c20 -20 20
-33 20 -570 0 -537 0 -550 -20 -570 -20 -20 -33 -20 -1670 -20 -1637 0 -1650
0 -1670 20 -20 20 -20 33 -20 570 0 537 0 550 20 570 20 20 33 20 1670 20
1637 0 1650 0 1670 -20z"/>
<path d="M1800 5170 c0 -27 -2 -29 -18 -21 -26 14 -62 -13 -62 -45 0 -46 16
-63 60 -61 l40 1 0 73 c0 39 -4 75 -10 78 -6 4 -10 -7 -10 -25z m-10 -45 c18
-21 4 -65 -20 -65 -24 0 -38 44 -20 65 7 8 16 15 20 15 4 0 13 -7 20 -15z"/>
<path d="M2650 5120 c0 -47 4 -80 10 -80 6 0 10 33 10 80 0 47 -4 80 -10 80
-6 0 -10 -33 -10 -80z"/>
<path d="M1615 5180 c-9 -14 -8 -92 1 -122 6 -19 34 -25 34 -8 0 6 -4 10 -10
10 -5 0 -10 20 -10 45 0 29 4 45 13 45 8 0 9 3 1 8 -6 4 -13 14 -16 22 -4 12
-6 12 -13 0z"/>
<path d="M2698 5170 c-10 -11 -13 -20 -8 -20 6 0 10 -23 10 -50 0 -36 4 -52
15 -57 9 -3 19 -2 23 2 4 4 1 10 -5 12 -8 3 -13 23 -13 49 0 28 4 44 13 44 8
0 9 3 1 8 -6 4 -13 13 -15 20 -3 9 -9 6 -21 -8z"/>
<path d="M1372 5148 c-17 -17 -15 -83 3 -98 8 -6 23 -9 35 -5 14 5 20 2 20
-10 0 -20 -28 -31 -43 -16 -17 17 -31 13 -17 -4 7 -8 25 -15 41 -15 35 0 43
24 40 115 -1 38 -3 40 -34 42 -18 2 -39 -3 -45 -9z m56 -47 c-2 -28 -7 -36
-23 -36 -15 0 -21 8 -23 34 -4 35 11 53 35 44 9 -4 13 -18 11 -42z"/>
<path d="M1490 5141 c-34 -65 20 -127 75 -87 17 12 15 14 -20 12 -30 -1 -40 3
-43 17 -3 14 4 17 37 17 33 0 41 4 41 18 0 42 -70 60 -90 23z m58 -3 c19 -19
14 -28 -18 -28 -16 0 -30 4 -30 8 0 9 21 32 30 32 3 0 11 -5 18 -12z"/>
<path d="M1880 5150 c-8 -5 -18 -6 -22 -4 -4 3 -8 -20 -8 -50 0 -31 5 -56 10
-56 6 0 10 20 10 45 0 31 5 47 17 54 10 5 15 12 13 15 -3 3 -12 1 -20 -4z"/>
<path d="M2046 5145 c-18 -19 -21 -57 -5 -86 8 -16 17 -19 41 -14 28 7 29 6
19 -14 -13 -23 -26 -27 -36 -11 -3 6 -11 10 -17 10 -7 0 -6 -6 2 -15 16 -19
44 -19 60 1 7 8 14 42 15 75 1 50 -1 59 -16 59 -9 0 -24 3 -32 6 -8 3 -22 -2
-31 -11z m55 -32 c10 -27 -12 -59 -35 -50 -16 6 -23 57 -9 71 13 12 36 2 44
-21z"/>
<path d="M2220 5098 c0 -32 4 -58 10 -58 6 0 10 23 10 50 0 38 4 50 15 50 8 0
15 4 15 9 0 5 -11 8 -25 7 -24 -1 -25 -4 -25 -58z"/>
<path d="M2300 5144 c-8 -8 -13 -28 -13 -44 0 -16 5 -36 13 -44 16 -20 54 -21
69 -2 10 12 6 14 -21 13 -23 -2 -33 3 -36 16 -3 14 4 17 38 17 38 0 41 2 34
23 -4 12 -12 25 -18 29 -19 13 -53 9 -66 -8z m58 -6 c19 -19 14 -28 -18 -28
-41 0 -40 33 1 39 3 1 10 -4 17 -11z"/>
<path d="M2421 5146 c-13 -16 -5 -46 13 -46 7 0 21 -7 32 -15 16 -12 17 -16 5
-24 -10 -6 -22 -6 -34 1 -24 13 -32 5 -12 -12 21 -17 68 -2 73 23 3 12 -7 22
-32 32 -20 9 -36 20 -36 25 0 16 30 24 43 11 17 -17 31 -13 17 4 -16 19 -54
19 -69 1z"/>
<path d="M2520 5128 c0 -18 3 -43 6 -55 7 -25 37 -39 56 -27 9 6 5 10 -12 14
-22 5 -25 12 -28 53 -3 53 -22 65 -22 15z"/>
<path d="M2598 5113 c-5 -52 -1 -73 13 -73 5 0 9 27 9 60 0 71 -16 80 -22 13z"/>
<path d="M2767 5153 c-17 -17 -5 -45 23 -54 31 -11 40 -34 18 -42 -7 -2 -21 0
-31 5 -10 5 -21 7 -24 5 -10 -11 40 -28 63 -23 37 10 33 51 -6 65 -16 5 -30
14 -30 20 0 17 20 23 36 10 16 -13 30 -6 19 10 -7 12 -58 15 -68 4z"/>
<path d="M1921 5103 c-1 -44 2 -53 20 -58 12 -4 26 -2 32 4 8 8 5 11 -11 11
-21 0 -26 8 -35 70 -3 14 -5 2 -6 -27z"/>
<path d="M1988 5108 c-5 -47 -1 -68 13 -68 5 0 9 25 9 55 0 65 -16 74 -22 13z"/>
<path d="M410 3790 c-20 -20 -20 -33 -20 -590 0 -557 0 -570 20 -590 20 -20
33 -20 1690 -20 1657 0 1670 0 1690 20 20 20 20 33 20 590 0 557 0 570 -20
590 -20 20 -33 20 -1690 20 -1657 0 -1670 0 -1690 -20z m3360 -20 c20 -20 20
-33 20 -570 0 -537 0 -550 -20 -570 -20 -20 -33 -20 -1670 -20 -1637 0 -1650
0 -1670 20 -20 20 -20 33 -20 570 0 537 0 550 20 570 20 20 33 20 1670 20
1637 0 1650 0 1670 -20z"/>
<path d="M1800 3221 c0 -47 4 -81 10 -81 6 0 10 31 10 74 0 41 -4 78 -10 81
-6 4 -10 -23 -10 -74z"/>
<path d="M1968 3294 c-5 -4 -8 -40 -8 -80 l0 -72 41 2 c22 1 45 9 50 17 14 22
11 66 -7 83 -18 18 -24 19 -44 6 -12 -7 -16 -3 -20 21 -3 17 -8 27 -12 23z
m60 -63 c22 -14 11 -65 -15 -69 -26 -4 -39 28 -23 58 12 22 18 24 38 11z"/>
<path d="M2580 3220 c0 -47 4 -80 10 -80 6 0 10 33 10 80 0 47 -4 80 -10 80
-6 0 -10 -33 -10 -80z"/>
<path d="M1685 3274 c-8 -20 -8 -86 1 -116 6 -19 34 -25 34 -8 0 6 -4 10 -10
10 -5 0 -10 20 -10 45 0 29 4 45 13 45 8 0 9 3 1 8 -6 4 -13 14 -16 21 -3 12
-6 10 -13 -5z"/>
<path d="M2623 3265 c-8 -9 -9 -16 -3 -20 6 -3 10 -26 10 -51 0 -31 5 -46 15
-51 9 -3 19 -2 23 2 4 4 1 10 -5 12 -16 6 -18 93 -2 93 6 0 4 7 -5 15 -18 18
-18 18 -33 0z"/>
<path d="M1441 3247 c-6 -6 -11 -28 -11 -49 0 -44 27 -66 60 -48 23 13 26 2 6
-26 -13 -17 -18 -17 -36 -6 -19 11 -21 11 -18 0 3 -7 18 -14 35 -16 27 -3 32
1 42 29 6 18 11 53 11 78 l0 47 -39 1 c-21 1 -43 -3 -50 -10z m62 -26 c7 -28
-11 -63 -30 -59 -22 4 -31 67 -12 79 17 10 36 1 42 -20z"/>
<path d="M1560 3241 c-34 -65 21 -128 76 -86 18 14 17 14 -15 8 -23 -4 -36 -2
-42 8 -15 24 -10 29 31 29 32 0 40 4 40 18 0 42 -70 60 -90 23z m54 3 c28 -11
18 -34 -14 -34 -32 0 -37 9 -18 28 14 14 12 14 32 6z"/>
<path d="M1864 3245 c-18 -14 -17 -14 14 -9 25 5 32 3 32 -9 0 -9 -11 -17 -26
-19 -38 -4 -54 -32 -32 -55 14 -13 22 -14 41 -6 18 8 28 8 36 0 6 -6 14 -7 18
-2 5 4 2 10 -4 12 -8 3 -13 21 -13 43 0 29 -5 42 -19 50 -25 13 -23 13 -47 -5z
m44 -62 c-2 -10 -13 -19 -26 -21 -24 -4 -29 7 -10 26 18 18 40 15 36 -5z"/>
<path d="M2144 3236 c3 -12 6 -38 6 -58 0 -21 5 -38 11 -38 5 0 9 8 8 18 -5
49 2 82 16 82 8 0 15 4 15 8 0 5 -14 9 -31 9 -26 0 -30 -3 -25 -21z"/>
<path d="M2226 3238 c-9 -12 -16 -29 -16 -38 0 -47 62 -78 90 -45 10 12 6 13
-24 8 -32 -5 -36 -3 -36 16 0 18 6 21 40 21 22 0 40 3 40 8 0 20 -34 52 -55
52 -13 0 -31 -10 -39 -22z m64 -8 c10 -18 8 -20 -25 -20 -40 0 -41 2 -19 24
21 21 31 20 44 -4z"/>
<path d="M2353 3253 c-26 -10 -13 -43 22 -57 19 -8 35 -19 35 -25 0 -15 -23
-19 -43 -9 -23 12 -37 1 -17 -12 22 -14 47 -12 64 6 24 23 20 33 -20 50 -19 8
-33 20 -31 27 5 13 21 14 52 1 18 -7 18 -6 6 9 -13 16 -43 21 -68 10z"/>
<path d="M2450 3218 c0 -58 11 -71 59 -74 l41 -2 0 59 c0 33 -4 59 -10 59 -5
0 -10 -17 -10 -37 0 -47 -12 -66 -36 -61 -15 2 -20 14 -22 51 -4 58 -22 63
-22 5z"/>
<path d="M2697 3253 c-17 -17 -5 -45 23 -54 31 -11 40 -34 18 -42 -7 -2 -21 0
-31 5 -10 5 -21 7 -24 4 -3 -3 7 -11 21 -18 33 -14 59 -2 64 30 2 16 -3 23
-22 28 -35 9 -54 32 -31 40 9 4 21 2 28 -5 17 -17 31 -13 17 4 -13 15 -51 20
-63 8z"/>
<path d="M410 1890 c-20 -20 -20 -33 -20 -590 0 -557 0 -570 20 -590 20 -20
33 -20 1690 -20 1657 0 1670 0 1690 20 20 20 20 33 20 590 0 557 0 570 -20
590 -20 20 -33 20 -1690 20 -1657 0 -1670 0 -1690 -20z m3360 -20 c20 -20 20
-33 20 -570 0 -537 0 -550 -20 -570 -20 -20 -33 -20 -1670 -20 -1637 0 -1650
0 -1670 20 -20 20 -20 33 -20 570 0 537 0 550 20 570 20 20 33 20 1670 20
1637 0 1650 0 1670 -20z"/>
<path d="M1950 1321 c0 -47 4 -81 10 -81 6 0 10 12 10 28 l1 27 24 -27 c34
-40 52 -35 22 6 -26 33 -26 34 -7 51 11 10 18 21 15 23 -3 3 -16 -5 -30 -18
l-25 -23 0 41 c0 22 -4 44 -10 47 -6 4 -10 -23 -10 -74z"/>
<path d="M2055 1390 c-3 -5 -1 -10 4 -10 6 0 11 5 11 10 0 6 -2 10 -4 10 -3 0
-8 -4 -11 -10z"/>
<path d="M2830 1320 c0 -47 4 -80 10 -80 6 0 10 33 10 80 0 47 -4 80 -10 80
-6 0 -10 -33 -10 -80z"/>
<path d="M1430 1377 c0 -9 -5 -17 -12 -17 -9 0 -9 -3 0 -12 7 -7 12 -31 12
-55 0 -42 20 -67 38 -48 4 4 1 10 -5 12 -15 5 -18 89 -4 95 4 2 0 12 -10 22
-17 17 -19 18 -19 3z"/>
<path d="M2885 1374 c-8 -20 -8 -86 1 -116 6 -19 34 -25 34 -8 0 6 -4 10 -10
10 -5 0 -10 20 -10 45 0 29 4 45 13 45 8 0 9 3 1 8 -6 4 -13 14 -16 21 -3 12
-6 10 -13 -5z"/>
<path d="M1180 1341 c-15 -29 -12 -67 6 -85 18 -19 20 -19 45 -6 16 9 19 7 19
-9 0 -22 -29 -36 -44 -21 -16 16 -30 12 -16 -5 18 -21 57 -19 70 4 5 11 10 46
10 79 l0 59 -40 1 c-30 1 -42 -3 -50 -17z m65 -41 c0 -28 -4 -36 -22 -38 -24
-4 -38 25 -28 59 5 14 14 19 28 17 18 -2 22 -10 22 -38z"/>
<path d="M1312 1348 c-7 -7 -12 -29 -12 -50 0 -43 26 -64 66 -54 35 9 29 24
-8 22 -23 -1 -33 4 -36 17 -3 14 4 17 37 17 29 0 41 4 41 14 0 37 -61 61 -88
34z m56 -10 c19 -19 14 -28 -18 -28 -16 0 -30 4 -30 8 0 9 21 32 30 32 3 0 11
-5 18 -12z"/>
<path d="M1556 1347 c-23 -17 -12 -43 25 -56 16 -5 29 -14 29 -19 0 -15 -25
-21 -41 -11 -22 14 -33 11 -19 -6 17 -21 57 -19 69 3 12 23 3 38 -32 51 -37
14 -35 35 3 28 31 -7 42 6 14 17 -22 8 -28 8 -48 -7z"/>
<path d="M1690 1350 c-7 -4 -19 -6 -27 -3 -10 4 -13 -8 -13 -51 0 -31 5 -56
10 -56 6 0 10 20 10 45 0 33 5 47 16 52 21 8 34 -14 34 -59 0 -21 4 -38 10
-38 5 0 7 13 4 29 -7 33 10 71 31 71 11 0 15 -13 15 -50 0 -27 5 -50 10 -50 6
0 10 22 10 50 0 52 -21 78 -50 60 -8 -5 -21 -5 -30 0 -9 5 -22 5 -30 0z"/>
<path d="M1840 1340 c-24 -24 -25 -48 -4 -78 17 -24 53 -29 72 -10 20 20 15
86 -7 98 -28 14 -38 13 -61 -10z m55 -40 c0 -28 -4 -36 -22 -38 -26 -4 -39 28
-23 58 18 33 45 21 45 -20z"/>
<path d="M2140 1350 c-7 -4 -19 -6 -27 -3 -10 4 -13 -8 -13 -51 0 -68 18 -75
22 -8 3 39 6 47 23 47 17 0 20 -8 23 -47 4 -63 22 -62 22 2 0 52 -21 78 -50
60z"/>
<path d="M2229 1339 c-16 -16 -20 -28 -15 -52 7 -37 23 -49 54 -42 25 6 29 -7
7 -25 -12 -10 -19 -10 -27 -2 -17 17 -33 15 -18 -3 18 -21 57 -19 70 4 15 29
13 134 -2 128 -7 -2 -21 0 -30 5 -13 6 -23 3 -39 -13z m51 -14 c17 -21 4 -65
-20 -65 -23 0 -35 33 -20 60 13 24 23 25 40 5z"/>
<path d="M2400 1299 c0 -33 4 -59 10 -59 6 0 10 20 10 45 0 31 5 47 15 51 23
9 18 22 -10 22 -24 0 -25 -3 -25 -59z"/>
<path d="M2482 1348 c-17 -17 -15 -74 4 -92 19 -20 44 -20 70 -1 18 13 16 14
-21 12 -30 -2 -40 2 -43 16 -3 14 4 17 37 17 42 0 48 8 31 41 -12 22 -59 26
-78 7z m56 -10 c19 -19 14 -28 -18 -28 -16 0 -30 4 -30 8 0 9 21 32 30 32 3 0
11 -5 18 -12z"/>
<path d="M2600 1345 c-16 -19 0 -40 35 -49 26 -7 34 -31 13 -39 -7 -2 -21 0
-31 5 -10 5 -21 7 -24 4 -3 -3 7 -11 21 -18 52 -23 88 33 38 58 -39 19 -48 32
-28 40 10 4 22 2 29 -5 17 -17 31 -13 17 4 -7 8 -23 15 -35 15 -12 0 -28 -7
-35 -15z"/>
<path d="M2710 1306 c0 -46 3 -56 20 -61 12 -4 27 -1 35 5 11 9 15 9 15 1 0
-6 5 -11 10 -11 6 0 10 27 10 60 0 71 -18 81 -22 13 -3 -41 -6 -48 -25 -51
-21 -3 -23 0 -23 47 0 28 -4 51 -10 51 -5 0 -10 -24 -10 -54z"/>
<path d="M2953 1354 c-26 -11 -13 -44 23 -59 30 -13 34 -17 24 -30 -9 -11 -17
-12 -32 -4 -23 12 -39 2 -18 -11 22 -14 47 -12 64 5 20 21 11 41 -25 54 -16 5
-29 14 -29 20 0 17 19 22 41 10 17 -9 20 -8 17 3 -5 14 -44 21 -65 12z"/>
<path d="M2050 1295 c0 -30 5 -55 10 -55 6 0 10 25 10 55 0 30 -4 55 -10 55
-5 0 -10 -25 -10 -55z"/>
</g>
</svg>
